<?xml version="1.0" encoding="iso-8859-1"?>
<!-- Uploaded to: SVG Repo, www.svgrepo.com, Generator: SVG Repo Mixer Tools -->
<svg fill="#000000" height="800px" width="800px" version="1.1" id="Layer_1" xmlns="http://www.w3.org/2000/svg" xmlns:xlink="http://www.w3.org/1999/xlink" 
	 viewBox="0 0 512 512" xml:space="preserve">
<g transform="translate(4 1)">
	<g>
		<g>
			<path d="M271.2,220.867h-11.947c-8.533,0-15.36,6.827-15.36,15.36v11.947c0,8.533,6.827,15.36,15.36,15.36H271.2
				c8.533,0,15.36-6.827,15.36-15.36v-11.947C286.56,227.693,279.733,220.867,271.2,220.867z M269.493,246.467h-8.533v-8.533h8.533
				V246.467z"/>
			<path d="M233.653,186.733H245.6c8.533,0,15.36-6.827,15.36-15.36v-11.947c0-8.533-6.827-15.36-15.36-15.36h-11.947
				c-8.533,0-15.36,6.827-15.36,15.36v11.947C218.293,179.907,225.12,186.733,233.653,186.733z M235.36,161.133h8.533v8.533h-8.533
				V161.133z"/>
			<path d="M226.827,278.893c0-8.533-6.827-15.36-15.36-15.36H199.52c-8.533,0-15.36,6.827-15.36,15.36v11.947
				c0,8.533,6.827,15.36,15.36,15.36h11.947c8.533,0,15.36-6.827,15.36-15.36V278.893z M209.76,289.133h-8.533V280.6h8.533V289.133z
				"/>
			<path d="M322.4,280.6h-11.947c-8.533,0-15.36,6.827-15.36,15.36v11.947c0,8.533,6.827,15.36,15.36,15.36H322.4
				c8.533,0,15.36-6.827,15.36-15.36V295.96C337.76,287.427,330.933,280.6,322.4,280.6z M320.693,306.2h-8.533v-8.533h8.533V306.2z"
				/>
			<path d="M322.4,374.467h-11.947c-8.533,0-15.36,6.827-15.36,15.36v11.947c0,8.533,6.827,15.36,15.36,15.36H322.4
				c8.533,0,15.36-6.827,15.36-15.36v-11.947C337.76,381.293,330.933,374.467,322.4,374.467z M320.693,400.067h-8.533v-8.533h8.533
				V400.067z"/>
			<path d="M254.133,323.267h-11.947c-8.533,0-15.36,6.827-15.36,15.36v11.947c0,8.533,6.827,15.36,15.36,15.36h11.947
				c8.533,0,15.36-6.827,15.36-15.36v-11.947C269.493,330.093,262.667,323.267,254.133,323.267z M252.427,348.867h-8.533v-8.533
				h8.533V348.867z"/>
			<path d="M185.867,365.933H173.92c-8.533,0-15.36,6.827-15.36,15.36v11.947c0,8.533,6.827,15.36,15.36,15.36h11.947
				c8.533,0,15.36-6.827,15.36-15.36v-11.947C201.227,372.76,194.4,365.933,185.867,365.933z M184.16,391.533h-8.533V383h8.533
				V391.533z"/>
			<path d="M469.173,454.68c-28.16-18.773-50.347-36.693-63.147-47.787c15.36-8.533,23.04-26.453,23.893-27.307l4.267-9.387
				l-9.387-2.56c-11.947-3.413-29.867-17.067-43.52-29.013c18.773-5.12,35.84-14.507,36.693-15.36l21.333-11.947l-23.893-4.267
				c-11.947-2.56-42.667-29.013-67.413-52.907c11.947-3.413,19.627-9.387,20.48-9.387l15.36-11.947l-18.773-3.413
				c-8.533-1.707-23.04-14.507-34.133-26.453c17.067-2.56,29.013-8.533,29.867-8.533l13.653-6.827l-12.8-8.533
				c-38.434-23.22-70.856-84.005-85.284-114.68c5.386-3.559,11.822-5.641,18.724-5.641c5.12,0,8.533-3.413,8.533-8.533
				s-3.413-8.533-8.533-8.533c-18.773,0-34.133-15.36-34.133-34.133c0-5.12-3.413-8.533-8.533-8.533s-8.533,3.413-8.533,8.533
				c0,18.773-15.36,34.133-34.133,34.133c-5.12,0-8.533,3.413-8.533,8.533s3.413,8.533,8.533,8.533
				c6.902,0,13.338,2.082,18.724,5.64c-14.431,30.671-46.903,91.407-86.137,113.826l-12.8,8.533l13.653,6.827
				c0.853,0,12.8,5.973,29.867,8.533c-11.947,11.947-25.6,24.747-34.133,26.453l-18.773,3.413l15.36,11.947
				c0.853,0.853,8.533,6.827,20.48,9.387c-24.747,23.893-55.467,51.2-67.413,52.907l-23.893,4.267L86.88,321.56
				c0.853,0.853,17.92,10.24,36.693,15.36c-13.653,11.947-32.427,26.453-43.52,29.013l-10.24,2.56l4.267,9.387
				c0,0.853,8.533,19.627,23.893,27.307c-12.8,11.093-34.987,29.013-63.147,47.787l-23.04,14.507l27.307,0.853
				c2.56,0,59.733,1.707,109.227-9.387c-7.68,5.12-13.653,9.387-16.213,9.387l0.853,17.067c2.56,0,59.733-0.853,88.747-22.187
				c1.459,1.251,3.177,2.603,5.12,3.958v26.762H209.76c-5.12,0-8.533,3.413-8.533,8.533S204.64,511,209.76,511h17.067h51.2h17.067
				c5.12,0,8.533-3.413,8.533-8.533s-3.413-8.533-8.533-8.533h-17.067v-28.224c1.593-1.149,3.027-2.286,4.267-3.349
				c29.867,22.187,87.04,23.04,89.6,23.04v-17.067c-2.56-0.853-8.533-4.267-16.213-9.387c50.347,11.093,106.667,9.387,110.08,9.387
				l26.453,0.853L469.173,454.68z M252.427,35.693c3.311,5.794,8.235,10.771,13.979,14.181l-1.718,1.718
				c-3.776,2.523-7.123,5.745-9.824,9.408c-0.945,1.138-1.761,2.354-2.438,3.707c-2.977-5.21-7.254-9.769-12.261-13.115
				l-1.718-1.718C244.191,46.465,249.116,41.488,252.427,35.693z M243.893,493.933v-18.497c0.551,0.157,1.113,0.3,1.676,0.44
				c1.514,0.557,3.329,0.991,5.15,0.991h1.707h1.707c1.707,0,4.267-0.853,6.827-1.707v18.773H243.893z M318.133,427.373
				l-10.24,13.653c5.12,4.267,16.213,14.507,28.16,23.893c-17.92-3.413-36.693-9.387-46.933-19.627l-6.827-6.827l-5.973,6.827
				c-0.824,0-10.412,10.354-22.604,13.363c-0.425,0.102-0.85,0.202-1.274,0.287c-0.005,0.001-0.01,0.002-0.015,0.003
				c-0.002,0-0.003-0.001-0.004-0.001c-4.265-0.854-8.53-2.56-12.796-5.119l-3.262-1.957c-4.864-3.365-7.831-6.576-7.831-6.576
				l-5.973-6.827l-5.973,6.827c-10.24,10.24-29.013,16.213-46.933,19.627c11.947-9.387,23.04-18.773,28.16-23.893l-10.24-13.653
				c-29.867,17.92-87.04,23.04-121.173,23.893c33.28-24.747,53.76-44.373,54.613-45.227l17.067-17.067l-23.893,2.56
				c-9.387,0.853-17.067-6.827-21.333-12.8c23.04-11.093,50.347-37.547,53.76-40.96l14.507-14.507l-20.48-0.853
				c-10.24,0-22.187-4.267-31.573-8.533c27.307-16.213,63.147-53.76,71.68-62.293l17.067-17.92l-23.893,3.413
				c-5.12,0.853-9.387,0-13.653-0.853c17.067-11.947,33.28-31.573,37.547-36.693l11.947-14.507l-18.773,0.853
				c-9.387,0.853-17.92-0.853-24.747-2.56c31.573-26.453,58.027-72.533,74.24-104.96c0.892,1.784,1.566,3.463,2.08,5.112
				c0.862,2.989,1.334,6.138,1.334,9.395c0,5.12,3.413,8.533,8.533,8.533s8.533-3.413,8.533-8.533c0-2.586,0.301-5.103,0.853-7.528
				c0.538-2.1,1.354-4.114,2.561-6.125c15.36,32.427,41.813,78.507,74.24,104.96c-6.827,1.707-15.36,2.56-24.747,2.56l-18.773-0.853
				l11.093,14.507c4.267,5.12,20.48,24.747,37.547,36.693c-4.267,0.853-8.533,1.707-13.653,0.853l-23.893-3.413l17.067,17.92
				c8.533,8.533,44.373,45.227,71.68,62.293c-9.387,4.267-21.333,8.533-31.573,8.533h-18.773l14.507,14.507
				c4.267,3.413,31.573,29.867,53.76,40.96c-4.267,5.973-11.947,13.653-21.333,12.8l-23.893-2.56l17.067,17.067
				c0.853,1.707,21.333,21.333,54.613,45.227C405.173,450.413,348,446.147,318.133,427.373z"/>
		</g>
	</g>
</g>
</svg>