<?xml version="1.0" encoding="utf-8"?>
<!-- Generator: Adobe Illustrator 27.5.0, SVG Export Plug-In . SVG Version: 6.00 Build 0)  -->
<svg version="1.1" xmlns="http://www.w3.org/2000/svg" xmlns:xlink="http://www.w3.org/1999/xlink" x="0px" y="0px"
	 viewBox="0 0 750 500" style="enable-background:new 0 0 750 500;" xml:space="preserve">
<g id="BACKGROUND">
	<rect style="fill:#FFFFFF;" width="750" height="500"/>
</g>
<g id="OBJECTS">
	<g>
		<path d="M53.481,391.14c-3.475-1.238-6.482-3.288-9.515-5.764c0.478,1.807,0.483,1.801,2.878,3.863
			c1.186,1.021,2.349,2.069,3.557,3.136c-3.125,1.236-3.136,1.247-5.293-0.801c-0.911-0.865-1.712-1.851-2.662-2.667
			c-0.899-0.773-1.573-0.498-1.662,0.689c-0.101,1.355-0.102,2.733,0.019,4.087c0.293,3.254,0.271,6.496-0.081,9.74
			c-0.068,0.623-0.052,1.282-0.261,1.857c-0.322,0.887-0.788,1.849-1.85,1.935c-1.094,0.089-1.3-0.834-1.41-1.714
			c-0.039-0.314-0.177-0.808-0.462-0.726c-2.46,0.711-1.617-1.23-1.614-2.156c0.007-2.196,0.149-4.405,0.44-6.581
			c0.162-1.208,0.064-2.263-0.494-3.339c-1.281,0.032-1.429,1.374-2.48,2.015c-0.108-1.171,0.254-2.085,0.7-2.993
			c0.406-0.826-0.008-1.396-0.642-1.879l0.046,0.042c0.876-1.357,2.229-2.452,2.522-4.608c-2.69,2.619-5.385,4.686-6.978,7.765
			l0.053-0.046c-0.408,0.089-0.865,0.089-1.215,0.282c-0.971,0.534-1.828,1.857-2.945,0.114c-0.177-0.276-0.961,0.302-1.481-0.046
			c-0.034-0.9,0.812-1.114,1.269-1.629c1.415-1.594,3.283-2.773,3.693-5.209c0.21-1.252,1.925-1.865,2.621-3.859
			c-2.988,2.073-4.332,5.187-7.246,6.587c0.42-2.753,2.207-4.777,3.15-7.802c-4.024,1.706-5.682,5.482-8.991,7.135
			c2.644-3.378,5.791-6.329,8.308-10.011c-2.4-0.765-3.091,1.641-4.747,1.783c-0.001,0.001,0.041,0.042,0.041,0.042
			c0.683-1.136,1.382-2.262,2.043-3.41c0.574-0.997,1.205-2.025-0.214-2.886l0.02,0.02c1.797-4.535,5.89-7.273,8.657-11.051
			c0.541-0.738,1.453-1.235,1.482-2.325c-0.87-0.573-1.162,0.281-1.502,0.637c-1.372,1.436-2.691,2.927-3.976,4.443
			c-1.085,1.279-2.362,2.052-4.09,1.905l0.046,0.042c1.759-2.284,3.428-4.628,4.89-7.116c0.427-0.727,0.576-1.358-0.463-1.669
			l0.032,0.04c1.223-1.849,2.934-3.518,2.003-6.107c-0.181-0.503,0.431-0.893,0.698-1.328c0.646-1.053,1.119-2.162,1.042-3.504
			c-1.413,0.326-1.817,1.958-3.234,1.946l0.043,0.043c2.757-4.124,6.026-7.908,8.264-12.921c2.191,3.703,5.382,6.159,6.79,9.909
			l0.038-0.029c-0.549-0.444-1.098-0.889-2.048-1.657c0.528,2.848,1.48,5.025,2.523,7.211c1.027,2.152,3.331,3.635,3.57,6.816
			c-2.602-1.925-3.452-4.717-5.605-6.318c-0.256-0.72-0.462-1.485-1.468-1.66c-0.078,0.953,0.55,1.468,0.999,2.068
			c1.233,2.841,3.577,5.047,4.576,8.021c0.001,0,0.04-0.037,0.04-0.037c-0.21,0.012-0.421,0.024-0.631,0.036l0.032-0.035
			c-0.081,1.097,0.653,1.989,0.767,3.037c-0.102,0.095-0.204,0.191-0.306,0.286c-2.517-3.791-5.033-7.581-7.772-11.706
			c-0.667,1.67,0.05,2.665,0.576,3.547c2.572,4.312,5.253,8.558,7.865,12.846c0.892,1.464,2.206,2.513,3.421,3.657
			c0.853,0.802,1.756,1.523,1.694,2.848l0.037-0.037c-1.949-0.508-3.089-2.365-5.264-3.267c0.289,1.494,1.134,2.224,1.834,3.042
			c1.344,1.572,3.082,2.803,4.064,4.688l0.005-0.006c-1.331,0.918-0.796,1.891-0.12,2.911c0.903,1.362,2.391,2.26,3.241,3.972
			c-1.4,0.29-2.115-0.546-2.824-1.183c-0.606-0.545-1.054-0.497-1.584-0.003l0.056-0.046c-2.296-1.059-3.746-3.27-5.995-4.401
			c-0.355-0.178-0.618-0.548-1.32-0.184c2.59,3.933,6.686,6.295,9.759,9.654L53.481,391.14z M28.278,375.386
			c0,0-0.039-0.039-0.04-0.039L28.278,375.386z M38.997,349.47l-0.049,0.044C38.949,349.514,38.997,349.471,38.997,349.47z
			 M26.823,377.147c0.017-0.086,0.035-0.172,0.052-0.258c-0.151-0.013-0.303-0.035-0.454-0.029
			c-0.017,0.001-0.028,0.157-0.042,0.241C26.527,377.117,26.675,377.133,26.823,377.147z"/>
		<path d="M724.79,362.771c0.712,1.891,2.399,3.248,3.419,4.97c0.286,0.483,1.037,1.27,0.424,1.471
			c-3.46,1.134-0.53,2.591-0.361,3.891c-0.128,0.111-0.255,0.223-0.383,0.334c-0.4-0.111-0.799-0.221-1.199-0.332
			c-0.179-0.383-0.468-0.904-0.927-0.495c-0.458,0.409,0.126,0.668,0.555,0.828c0.656,1.823,2.334,3.086,3.271,4.755l0.047-0.042
			c-1.371,1.962,0.214,3.369,1.368,4.632c1.137,1.244,2.757,2.134,4.166,3.181l0.045-0.043c-0.395,0.478-0.782,0.939-0.341,1.582
			c0.462,0.673,1.309,1.391,0.401,2.178c-0.855,0.741-1.697-0.055-2.546-0.253c-1.793-0.417-3.913,0.235-5.475-2.086
			c-0.321,2.018,0.843,2.514,1.562,3.242c1.929,1.956,1.103,4.573-1.595,5.319c-0.654,0.181-1.061-0.095-1.382-0.375
			c-1.187-1.038-2.708-1.116-4.261-1.474c-0.875,1.991-0.002,3.848,0.088,5.676c0.093,1.895,0.013,3.763-0.237,5.622
			c-0.208,1.548-0.896,2.926-2.518,3.807c-1.893,1.028-3.095,0.56-2.975-1.429c0.149-2.466-0.537-4.902-0.031-7.387
			c0.347-1.704-0.252-3.408-0.545-4.929c-1.524-0.422-1.401,1.197-2.483,1.027c-0.768-1.473,0.137-2.954-0.001-4.721
			c-2.858,1.221-3.429,4.187-5.835,5.504c-0.881-1.243,1.116-1.941,0.411-3.087c-1.482,0.083-1.992,1.524-3.467,1.752
			c-0.411-0.649,1.234-1.319,0.264-1.913c-0.739-0.452-1.43,0.484-2.462,0.257c-1.592-4.09,2.371-6.401,4.277-9.703
			c-3.352-0.167-3.841,3.522-7.01,3.633c0.754-2.593,4.485-3.126,4.648-5.16c0.175-2.188,1.312-3.783,2.774-6.185
			c-3.206,1.104-4.265,3.729-6.886,4.197l0.035-0.001c1.63-1.975,3.265-3.948,4.89-5.927c0.46-0.56,1.076-1.156,0.535-1.877
			c-0.589-0.785-1.382-0.276-2.122-0.112c-0.717,0.16-1.154,1.017-2.121,0.652c2.291-3.427,5.604-6.297,7.259-10.597
			c-2.95,0.635-3.977,3.515-6.833,3.079l0.052,0.027c2.965-2.461,5.522-5.207,7.449-8.406c0.318-0.528,0.65-0.996,0.145-1.798
			c-1.977,0.349-3.264,2.141-5.333,2.339l0.034,0.03c0.923-0.992,1.89-1.954,2.758-2.983c0.789-0.936,1.549-1.928,0.794-3.232
			c-1.581,0.051-2.37,1.341-4.046,2.084c2.192-3.322,5.466-5.555,7.047-8.862c-1.355-0.88-2.333,0.175-3.419,0.262l0.042,0.04
			c0.494-0.545,0.88-1.229,1.499-1.613c3.04-1.883,4.917-4.494,6.203-7.516c0.184-0.433,0.365-0.901,0.69-1.246
			c1.077-1.147,3.232-0.796,3.555,0.668c0.391,1.775,1.371,3.286,2.248,4.843c1.606,2.85,3.368,5.646,3.459,8.945
			c0.02,0.733,0.225,1.386,0.514,2.037c1.336,3.013,1.341,3.011-2.386,2.685c0.371,1.603,1.671,2.647,2.823,3.742
			c1.154,1.096,2.645,1.921,3.352,3.379c-0.892,0.821-1.41,0.009-2.014-0.303c-1.701-0.88-1.065,0.823-1.646,1.178
			c-0.134,0.01-0.268,0.02-0.401,0.029C724.696,362.631,724.743,362.701,724.79,362.771z M726.199,393.182
			c0.091-0.047,0.181-0.094,0.272-0.141c-0.106-0.146-0.207-0.295-0.327-0.431c-0.007-0.008-0.163,0.089-0.25,0.137
			C725.995,392.892,726.096,393.037,726.199,393.182z"/>
		<path d="M687.573,386.161c-0.597,0.792-1.476,1.025-2.366,1.343c-1.659,0.592-1.676,1.109-0.373,2.359
			c1.19,1.142,2.896,1.374,4.313,2.386c-1.29,1.296-3.768,0.355-4.246,2.669c-0.066,0.317-0.831-0.049-1.248-0.245
			c-0.937-0.441-1.877-0.875-2.974-0.917c-0.183,1.112,0.977,1.496,1.205,2.353c0.001,0,0.038-0.04,0.038-0.04
			c-1.064,0.001-1.908-0.962-3.021-0.714c-0.74,0.708,0.67,1.212,0.061,1.97c-0.238,0.043-0.579,0.186-0.899,0.149
			c-3.607-0.421-4.025-0.096-4.05,3.56c-0.017,2.587,0.136,5.175,0.119,7.762c-0.011,1.761-0.002,3.596-1.827,4.671
			c-0.479,0.282-0.901,0.864-1.56,0.487c-0.589-0.337-0.67-0.97-0.598-1.549c0.479-3.876-0.02-7.746-0.046-11.618
			c-0.008-1.148,0.254-2.345-0.359-3.444c-1.134-0.317-1.133,1.066-1.979,1.26c-1.305-0.21-0.471-2.516-2.052-2.338
			c-1.02,0.115-1.994,0.65-2.984,1.008c-1.67,0.605-3.362,1.09-5.167,0.918c-0.733-0.07-1.39-0.305-1.664-1.08
			c-0.279-0.787,0.039-1.335,0.703-1.784c0.484-0.327,1.035-0.664,1.331-1.137c0.625-1,1.047-2.119-0.878-2.007
			c-0.953,0.056-1.262-0.332-1.286-1.188c-0.023-0.815-0.028-1.638-0.151-2.44c-0.203-1.324,0.133-2.241,1.489-2.751
			c0.755-0.284,1.403-0.844,2.119-1.246c1.227-0.69,1.707-1.527,0.762-2.826c-0.799-1.098-0.524-2.024,0.227-3.184
			c1.061-1.639,1.397-3.412,0.946-5.598c-0.308-1.494,0.925-3.429,1.772-5.004c0.804-1.496,1.588-3.034,3.161-4.076
			c1.081-0.716,1.112-1.851-0.594-2.12c-1.348-0.213-1.286-1.045-0.576-1.717c1.546-1.463,0.852-3.831,2.452-5.327
			c1.331-1.245,2.461-2.705,3.059-4.614c0.494-1.579,3.154-1.394,4.268,0.284c1.434,2.161,2.871,4.25,5.743,5.087
			c-0.646,0.953-2.263,0.959-1.773,2.546c0.317,1.026-0.65,2.296,0.368,3.329c0.248,0.251,0.548,0.476,0.718,0.773
			c0.63,1.102,1.215,2.23,1.816,3.348c-1.393,0.423-0.941,2.236-1.456,2.578c-1.998,1.324-0.691,2.063,0.244,2.822
			c1.458,1.185,3.011,2.256,4.545,3.345c0.475,0.338,1.041,0.559,1.082,1.283c-0.46,0.94-1.184,0.355-1.805,0.267
			c-1.297-0.183-2.319-0.163-1.385,1.586c0.055,0.104,0.138,0.202,0.16,0.312c0.205,1.018-1.679,1.888-0.173,3.025
			c1.031,0.778,2.207,0.687,3.371,0.78c0.313,0.025,0.612,0.215,0.978,0.352c-0.661,2.046-3.179,0.828-4.055,2.562
			c0.967,1.86,3.106,1.049,4.54,1.836L687.573,386.161z M658.222,387.483c0.151-0.259,0.078-0.429-0.224-0.478
			c-0.102-0.017-0.23-0.01-0.316,0.04c-0.227,0.131-0.265,0.366-0.041,0.488C657.783,387.611,658.025,387.507,658.222,387.483z"/>
		<path d="M410.719,386.993c-0.446,0.591-1.103,0.766-1.768,1.003c-1.24,0.442-1.252,0.828-0.279,1.763
			c0.889,0.854,2.164,1.026,3.222,1.782c-0.964,0.968-2.815,0.265-3.172,1.994c-0.049,0.237-0.621-0.036-0.932-0.183
			c-0.7-0.33-1.403-0.654-2.222-0.685c-0.137,0.831,0.73,1.118,0.9,1.758l0.028-0.03c-0.795,0.001-1.426-0.719-2.257-0.534
			c-0.553,0.529,0.5,0.906,0.046,1.472c-0.178,0.032-0.432,0.139-0.672,0.112c-2.695-0.314-3.007-0.072-3.026,2.66
			c-0.013,1.933,0.101,3.866,0.089,5.799c-0.008,1.316-0.002,2.687-1.365,3.49c-0.358,0.211-0.673,0.646-1.165,0.364
			c-0.44-0.252-0.501-0.725-0.447-1.158c0.358-2.896-0.015-5.787-0.035-8.68c-0.006-0.858,0.19-1.752-0.268-2.573
			c-0.847-0.237-0.846,0.797-1.479,0.942c-0.975-0.157-0.352-1.88-1.533-1.747c-0.762,0.086-1.49,0.485-2.23,0.753
			c-1.248,0.452-2.512,0.814-3.86,0.686c-0.548-0.052-1.038-0.228-1.243-0.807c-0.208-0.588,0.029-0.998,0.526-1.333
			c0.361-0.244,0.773-0.496,0.994-0.85c0.467-0.747,0.782-1.583-0.656-1.499c-0.712,0.042-0.943-0.248-0.961-0.887
			c-0.017-0.609-0.021-1.224-0.112-1.823c-0.152-0.989,0.099-1.674,1.112-2.055c0.564-0.212,1.049-0.63,1.583-0.931
			c0.916-0.515,1.275-1.141,0.569-2.111c-0.597-0.82-0.392-1.512,0.169-2.379c0.793-1.225,1.044-2.549,0.707-4.183
			c-0.23-1.116,0.691-2.562,1.324-3.739c0.601-1.118,1.187-2.267,2.362-3.045c0.808-0.535,0.831-1.383-0.444-1.584
			c-1.007-0.159-0.961-0.781-0.431-1.283c1.155-1.093,0.636-2.862,1.832-3.98c0.995-0.93,1.839-2.021,2.285-3.447
			c0.369-1.18,2.357-1.041,3.189,0.212c1.071,1.615,2.145,3.176,4.291,3.801c-0.483,0.712-1.691,0.717-1.325,1.902
			c0.237,0.767-0.486,1.715,0.275,2.487c0.185,0.188,0.41,0.355,0.537,0.578c0.47,0.824,0.908,1.666,1.357,2.501
			c-1.04,0.316-0.703,1.67-1.088,1.926c-1.493,0.99-0.516,1.542,0.182,2.109c1.089,0.885,2.249,1.685,3.395,2.499
			c0.355,0.252,0.777,0.418,0.808,0.958c-0.344,0.703-0.884,0.265-1.348,0.199c-0.969-0.137-1.732-0.122-1.035,1.185
			c0.041,0.077,0.103,0.151,0.119,0.233c0.153,0.76-1.255,1.41-0.129,2.26c0.771,0.582,1.649,0.513,2.519,0.583
			c0.234,0.019,0.457,0.161,0.731,0.263c-0.494,1.529-2.375,0.618-3.029,1.914c0.723,1.39,2.321,0.784,3.392,1.372L410.719,386.993z
			 M388.79,387.981c0.113-0.194,0.058-0.32-0.167-0.357c-0.076-0.012-0.172-0.007-0.236,0.03c-0.17,0.098-0.198,0.273-0.031,0.365
			C388.462,388.076,388.643,387.998,388.79,387.981z"/>
		<path d="M469.948,390.363c-0.412,0.547-1.019,0.708-1.634,0.928c-1.146,0.409-1.158,0.766-0.258,1.63
			c0.822,0.789,2.001,0.949,2.979,1.648c-0.891,0.895-2.603,0.245-2.933,1.843c-0.045,0.219-0.574-0.034-0.862-0.169
			c-0.647-0.305-1.297-0.604-2.054-0.634c-0.127,0.768,0.675,1.033,0.832,1.625c0.001,0,0.026-0.027,0.026-0.027
			c-0.735,0.001-1.318-0.665-2.086-0.493c-0.511,0.489,0.462,0.837,0.042,1.361c-0.164,0.03-0.4,0.129-0.621,0.103
			c-2.492-0.291-2.78-0.066-2.797,2.459c-0.012,1.787,0.094,3.575,0.082,5.362c-0.008,1.216-0.002,2.484-1.262,3.227
			c-0.331,0.195-0.622,0.597-1.077,0.337c-0.407-0.233-0.463-0.67-0.413-1.07c0.331-2.678-0.014-5.351-0.032-8.026
			c-0.005-0.793,0.175-1.62-0.248-2.379c-0.783-0.219-0.782,0.737-1.367,0.871c-0.902-0.145-0.325-1.738-1.417-1.615
			c-0.704,0.079-1.377,0.449-2.061,0.696c-1.154,0.418-2.322,0.753-3.569,0.634c-0.507-0.048-0.96-0.211-1.15-0.746
			c-0.193-0.544,0.027-0.922,0.486-1.233c0.334-0.226,0.715-0.459,0.919-0.786c0.432-0.691,0.723-1.464-0.607-1.386
			c-0.659,0.039-0.872-0.23-0.888-0.82c-0.016-0.563-0.019-1.131-0.104-1.686c-0.14-0.914,0.092-1.548,1.028-1.9
			c0.522-0.196,0.969-0.583,1.464-0.86c0.847-0.476,1.179-1.055,0.526-1.952c-0.552-0.758-0.362-1.398,0.157-2.2
			c0.733-1.132,0.965-2.357,0.653-3.867c-0.213-1.032,0.639-2.369,1.224-3.457c0.555-1.033,1.097-2.096,2.184-2.815
			c0.747-0.495,0.768-1.278-0.41-1.465c-0.931-0.147-0.888-0.722-0.398-1.186c1.068-1.01,0.588-2.646,1.694-3.68
			c0.92-0.86,1.7-1.869,2.113-3.187c0.341-1.091,2.179-0.963,2.948,0.196c0.991,1.493,1.983,2.936,3.967,3.514
			c-0.447,0.659-1.563,0.663-1.225,1.759c0.219,0.709-0.449,1.586,0.254,2.299c0.171,0.173,0.379,0.329,0.496,0.534
			c0.435,0.761,0.839,1.54,1.255,2.313c-0.962,0.292-0.65,1.544-1.006,1.781c-1.38,0.915-0.477,1.425,0.168,1.95
			c1.007,0.819,2.08,1.558,3.139,2.311c0.328,0.233,0.719,0.387,0.747,0.886c-0.318,0.65-0.818,0.245-1.246,0.184
			c-0.896-0.126-1.602-0.113-0.957,1.095c0.038,0.071,0.095,0.139,0.11,0.216c0.141,0.703-1.16,1.304-0.119,2.089
			c0.712,0.538,1.524,0.474,2.329,0.539c0.216,0.017,0.423,0.149,0.676,0.243c-0.457,1.414-2.196,0.572-2.801,1.77
			c0.668,1.285,2.146,0.724,3.136,1.268L469.948,390.363z M449.673,391.277c0.104-0.179,0.054-0.296-0.155-0.33
			c-0.07-0.012-0.159-0.007-0.218,0.027c-0.157,0.091-0.183,0.253-0.029,0.337C449.37,391.365,449.537,391.293,449.673,391.277z"/>
		<path d="M81.666,383.533c-0.491,0.651-1.213,0.843-1.945,1.104c-1.364,0.486-1.378,0.912-0.307,1.94
			c0.978,0.939,2.381,1.129,3.546,1.961c-1.06,1.065-3.098,0.292-3.491,2.194c-0.054,0.26-0.683-0.04-1.026-0.202
			c-0.77-0.363-1.544-0.719-2.445-0.754c-0.151,0.914,0.803,1.23,0.99,1.934c0.001,0,0.031-0.033,0.031-0.033
			c-0.875,0.001-1.569-0.791-2.483-0.587c-0.609,0.582,0.55,0.997,0.05,1.62c-0.195,0.035-0.476,0.153-0.739,0.123
			c-2.965-0.346-3.309-0.079-3.33,2.927c-0.014,2.127,0.112,4.255,0.098,6.381c-0.009,1.448-0.002,2.956-1.502,3.84
			c-0.394,0.232-0.741,0.711-1.283,0.401c-0.484-0.277-0.551-0.798-0.492-1.274c0.394-3.187-0.016-6.369-0.038-9.552
			c-0.007-0.944,0.209-1.928-0.295-2.832c-0.932-0.26-0.931,0.877-1.627,1.036c-1.073-0.173-0.387-2.069-1.687-1.922
			c-0.838,0.095-1.639,0.534-2.454,0.829c-1.373,0.497-2.764,0.896-4.248,0.755c-0.603-0.057-1.143-0.251-1.368-0.888
			c-0.229-0.647,0.032-1.098,0.578-1.467c0.398-0.269,0.851-0.546,1.094-0.935c0.514-0.822,0.861-1.742-0.722-1.65
			c-0.784,0.046-1.037-0.273-1.057-0.977c-0.019-0.67-0.023-1.347-0.124-2.006c-0.167-1.088,0.109-1.842,1.224-2.262
			c0.621-0.234,1.154-0.694,1.742-1.024c1.008-0.567,1.403-1.255,0.626-2.323c-0.657-0.903-0.431-1.664,0.186-2.618
			c0.872-1.348,1.149-2.805,0.778-4.603c-0.254-1.229,0.761-2.819,1.457-4.115c0.661-1.23,1.306-2.494,2.599-3.351
			c0.889-0.589,0.914-1.522-0.488-1.743c-1.108-0.175-1.057-0.859-0.474-1.411c1.271-1.202,0.7-3.15,2.016-4.38
			c1.095-1.023,2.024-2.224,2.515-3.793c0.406-1.298,2.593-1.146,3.509,0.234c1.179,1.777,2.361,3.494,4.722,4.183
			c-0.531,0.784-1.861,0.789-1.458,2.094c0.261,0.844-0.534,1.888,0.303,2.737c0.204,0.207,0.451,0.391,0.59,0.636
			c0.518,0.906,0.999,1.833,1.493,2.753c-1.145,0.348-0.773,1.838-1.197,2.119c-1.643,1.089-0.568,1.696,0.2,2.321
			c1.199,0.974,2.475,1.855,3.736,2.75c0.391,0.277,0.856,0.46,0.889,1.055c-0.378,0.773-0.973,0.292-1.484,0.22
			c-1.066-0.15-1.906-0.134-1.139,1.304c0.045,0.085,0.113,0.166,0.131,0.257c0.168,0.837-1.381,1.552-0.142,2.487
			c0.848,0.64,1.814,0.565,2.772,0.642c0.257,0.021,0.503,0.177,0.804,0.289c-0.544,1.682-2.613,0.681-3.334,2.106
			c0.795,1.529,2.554,0.862,3.732,1.509L81.666,383.533z M57.534,384.621c0.124-0.213,0.064-0.353-0.184-0.393
			c-0.084-0.014-0.189-0.008-0.259,0.033c-0.187,0.108-0.218,0.301-0.034,0.401C57.173,384.726,57.372,384.64,57.534,384.621z"/>
	</g>
	<g>
		<g>
			<path d="M348.357,157.461C348.357,157.461,348.357,157.461,348.357,157.461L348.357,157.461L348.357,157.461
				c-0.004,0.016-0.008,0.031-0.011,0.046c0.016-0.001,0.031-0.005,0.047-0.007L348.357,157.461z"/>
			<path d="M716.423,372.032c-3.256-1.627-6.033-4.036-9.384-5.519c-4.176-1.849-8.513-3.471-11.627-7.109
				c-0.664-0.775-1.576-1.349-2.409-1.968c-4.178-3.101-8.103-6.491-11.823-10.131c-2.97-2.906-6.033-5.716-9.053-8.57
				c-2.895-2.736-6.089-5.138-8.881-7.993c-4.116-4.211-7.852-8.802-12.309-12.666c-3.87-3.354-6.716-7.431-9.1-11.89
				c-0.306-0.572-0.686-1.144-0.596-1.818c0.659-0.145,1.016,0.172,1.287,0.47c3.78,4.16,7.951,7.968,11.155,12.649
				c2.454,3.585,5.161,7.015,8.743,9.541c9.695,6.837,19.442,13.6,28.962,20.681c5.146,3.828,10.774,6.929,16.008,10.627
				c1.333,0.942,2.859,1.615,4.305,2.394c0.314,0.169,0.691,0.198,0.981-0.032c0.455-0.361,0.221-0.805-0.004-1.162
				c-1.075-1.703-2.381-3.206-4.088-4.3c-8.388-5.373-16.277-11.438-24.271-17.362c-5.215-3.864-10.503-7.64-15.899-11.246
				c-4.359-2.913-8.304-6.179-11.446-10.413c-4.005-5.396-8.904-9.889-14.274-13.908c-1.44-1.077-3.125-1.878-4.188-3.449
				c-3.334-4.93-7.693-8.9-12.11-12.81c-2.272-2.01-4.72-3.851-6.798-6.044c-6.603-6.967-13.691-13.51-19.132-21.517
				c-1.417-2.085-3.301-3.766-5.121-5.502c-4.024-3.839-7.6-8.03-10.469-12.846c-1.975-3.317-5.376-3.164-7.398,0.088
				c-0.32,0.515-0.64,1.037-1.024,1.502c-1.068,1.292-1.497,1.361-2.751,0.263c-3.133-2.74-5.891-5.859-8.75-8.872
				c-1.009-1.063-1.648-2.446-2.135-3.844c-2.381-6.847-5.857-13.131-10.238-18.854c-5.103-6.667-10.413-13.167-15.293-20.016
				c-3.265-4.583-7.472-8.377-11.854-11.947c-1.499-1.221-3.411-1.23-4.941-2.192c-2.689-1.691-5.26-1.215-7.842,0.249
				c-4.815,2.729-8.958,6.257-12.238,10.696c-6.158,8.334-13.84,15.268-20.786,22.876c-1.54,1.687-2.253,1.633-3.085-0.209
				c-1.976-4.379-4.931-8.136-7.453-12.167c-2.943-4.704-6.088-9.248-9.897-13.315c-2.57-2.744-4.413-5.972-5.938-9.404
				c-1.242-2.795-2.937-5.228-5.373-7.216c-4.159-3.394-8.21-6.949-11.338-11.374c-1.905-2.695-3.929-5.284-6.242-7.632
				c-1.469-1.491-2.738-3.119-3.923-4.835c-1.578-2.282-3.16-4.592-5.354-6.333c-2.24-1.777-4.425-3.615-6.415-5.657
				c-2.569-2.636-4.966-6.585-8.725-6.217c-0.596,0.058-1.209-0.07-1.815-0.111c-1.112-0.075-2.016-0.536-2.569-1.52
				c-1.29-2.294-3.332-2.813-5.765-2.587c-1.993,0.185-5.689-4.642-7.627-5.385c-2.559-0.982-12.48,14.117-15.585,17.137
				c-4.161,4.046-8.066,8.335-11.975,12.621c-1.689,1.853-3.744,3.42-4.936,5.662c-2.684,5.046-4.761,10.355-6.622,15.758
				c-2.93,8.505-7.198,16.311-12.666,23.446c-0.989,1.29-2.155,2.494-3.655,3.265c-0.587,0.302-1.159,0.348-1.671-0.161
				c-0.501-0.498-0.567-1.119-0.221-1.667c0.505-0.801,1.112-1.542,1.71-2.281c2.453-3.027,5.085-5.914,7.168-9.229
				c4.479-7.129,6.779-15.074,8.685-23.167c-0.597,0.047-1.119,0.258-1.642,0.579c-5.023,3.079-9.161,7.059-12.304,12.05
				c-1.858,2.949-3.835,5.818-6.803,7.753c-4.137,2.697-7.235,6.386-10.291,10.17c-2.355,2.915-5.09,5.454-8.596,6.982
				c-1.39,0.606-2.119,1.596-2.487,3.076c-0.605,2.43-1.412,4.783-2.626,7.027c-4.006,7.402-8.584,14.423-13.646,21.135
				c-4.654,6.171-9.837,11.823-15.724,16.88c-5.514,4.738-11.129,9.378-16.313,14.493c-1.542,1.522-2.992,3.144-4.602,4.588
				c-1.553,1.392-2.336,1.381-3.36-0.303c-2.296-3.78-6.073-6.137-8.808-9.489c-0.854-1.047-2.153-1.734-3.475-2.228
				c-1.702-0.635-3.383-1.331-5.101-1.918c-3.273-1.117-6.241-2.724-8.158-5.689c-2.92-4.516-7.123-7.75-10.954-11.364
				c-1.4-1.32-2.991-2.346-4.678-3.248c-3.205-1.714-6.572-3.09-9.723-4.936c-3.298-1.931-6.559-1.646-9.563,0.95
				c-1.443,1.247-2.897,2.471-4.212,3.852c-8.187,8.596-16.518,17.055-25.359,24.977c-6.775,6.07-13.586,12.099-20.135,18.409
				c-8.231,7.93-16.285,16.045-24.911,23.553c-1.729,1.505-3.143,3.206-4.338,5.131c-1.79,2.885-3.847,5.568-6.326,7.892
				c-8.589,8.051-16.353,16.92-25.022,24.906c-8.013,7.381-15.56,15.27-24.016,22.173c-4.359,3.559-8.721,7.122-13.372,10.298
				c-2.715,1.854-29.317,17.645-28.269,17.857c1.705,0.345,11.778-3.111,13.518-3.219c4.412-0.272,13.046-9.125,17.39-9.932
				c1.186-0.22,1.756-3.445,2.891-3.909c3.925-1.603,11.615-5.744,15.633-7.165c2.046-0.723,7.207-3.747,9.147-4.745
				c4.413-2.27,12.653-7.238,17.703-6.437c4.623,0.733,6.498,13.969,9.574,10.277c3.523-4.228,8.337-6.079,13.748-6.351
				c4.411-0.222,8.835-0.605,13.244,0.002c3.472,0.478,6.405-0.55,9.215-2.602c4.908-3.584,8.971-7.943,12.081-13.097
				c2.401-3.98,5.651-6.956,9.403-9.511c2.451-1.669,3.788-1.272,5.124,1.392c0.402,0.802,1.548,6.674,0.997,7.337
				c-4.506,5.42-80.911,58.357-83.452,59.448c-0.475,0.204-1.011,0.465-0.947,1.096c0.071,0.694,0.588,1.076,1.241,1.124
				c1.034,0.076,2.086,0.163,3.112,0.058c3.804-0.39,36.478-12.828,40.296-12.801c3.123,0.021,10.878-4.975,13.976-5.26
				c4.113-0.378,18.992-1.732,23.039-1.339c0.543,0.053-24.805,15.165-24.549,15.914c-0.218,0.678-9.87,7.1-10.07,7.958
				c0.633,0,1.225,0.027,1.812-0.007c0.691-0.04,1.382-0.114,2.068-0.207c11.235-1.516,46.352-21.807,57.573-19.923
				c2.12,0.356,4.26,0.981,6.418,0.385c1.031-0.285,2.049-0.277,3.084-0.335c3.256-0.183,6.313,0.971,9.481,1.38
				c1.476,0.191,2.977,0.472,4.32-0.327c3.791-2.255,7.601-4.489,11.282-6.916c2.561-1.689,4.325-4.221,6.068-6.71
				c1.839-2.626,3.722-5.203,6.171-7.321c1.906-1.648,2.245-1.729,3.335,0.633c1.801,3.901,5.053,5.5,8.965,6.286
				c1.438,0.289,2.784,0.06,4.011-0.677c4.127-2.48,7.828-5.408,10.089-9.819c0.394-0.768,0.856-1.506,1.346-2.217
				c2.396-3.476,3.108-3.585,6.598-1.099c3.604,2.568,7.502,4.647,11.331,6.845c1.039,0.597,2.182,0.509,3.214,0.919
				c0.598,0.238,1.524,0.335,1.462,1.223c-0.048,0.695-0.811,0.784-1.396,0.962c-1.325,0.402-2.665,0.775-3.953,1.274
				c-3.584,1.39-6.746,3.473-9.763,5.847c-3.473,2.734-6.844,5.574-10.012,8.653c-0.584,0.568-1.5,1.064-0.874,2.154
				c0.71,1.236,1.674,0.922,2.695,0.482c1.193-0.515,2.417-0.957,3.606-1.481c4.353-1.919,8.597-4.111,13.264-5.238
				c2.105-0.508,4.263-0.882,6.29-1.613c2.584-0.932,5.232-1.327,7.911-1.202c2.297,0.107,3.798-0.811,4.906-2.665
				c0.4-0.669,0.737-1.38,1.172-2.025c3.742-5.551,6.237-11.776,9.528-17.572c1.246-2.195,1.96-2.443,4.081-1.134
				c0.365,0.225,0.68,0.532,1.016,0.803c4.853,3.924,9.887,7.607,15.026,11.142c1.639,1.128,3.375,2.135,5.337,2.643
				c0.425,0.11,0.883,0.156,1.111-0.347c0.17-0.375-0.079-0.66-0.319-0.913c-0.178-0.188-0.404-0.334-0.571-0.531
				c-2.281-2.679-5.381-4.337-8.093-6.477c-3.737-2.95-7.471-5.912-11.334-8.692c-3.085-2.22-6.589-1.959-9.548,0.393
				c-0.676,0.537-1.323,1.114-1.96,1.698c-3.356,3.078-6.211,6.627-10.421,8.857c-2.284,1.21-3.913,1.4-5.931,0.147
				c-0.957-0.594-1.977-1.109-2.856-1.802c-5.092-4.01-9.482-8.819-14.571-12.845c-1.042-0.824-1.83-2.033-2.415-3.342
				c-1.35-3.02-1.311-6.109-0.384-9.139c0.832-2.721,0.281-4.889-1.598-6.919c-1.231-1.331-2.484-2.697-3.42-4.234
				c-1.598-2.626-3.77-4.731-5.817-6.949c-2.152-2.331-5.585-2.668-7.897-0.563c-2.602,2.37-5.924,2.712-8.996,3.785
				c-0.347,0.121-0.7,0.038-0.816-0.389c-0.076-0.278,0.058-0.511,0.293-0.65c0.447-0.264,0.9-0.518,1.365-0.747
				c3.386-1.671,6.19-3.983,8.25-7.198c1.214-1.895,3.51-2.208,5.389-0.746c2.114,1.645,4.019,3.536,5.867,5.474
				c1.231,1.291,1.514,1.329,2.522-0.142c2.25-3.283,4.409-6.625,6.346-10.107c1.361-2.446,1.401-2.459,3.307-0.255
				c2.16,2.497,4.492,4.772,7.202,6.702c4.551,3.239,8.419,7.188,11.522,11.862c1.293,1.948,2.533,3.949,4.345,5.488
				c0.718,0.61,0.848,1.199,0.22,1.995c-2.951,3.737-5.114,8.037-8.287,11.619c-0.343,0.387-0.592,0.855-0.915,1.261
				c-0.671,0.841-0.474,1.577,0.184,2.321c0.735,0.832,1.447,0.71,2.278,0.129c1.634-1.143,3.243-2.307,4.762-3.608
				c2.69-2.306,4.915-5.124,7.977-7.035c1.045-0.652,1.841-0.824,2.815-0.114c0.56,0.408,1.244,0.71,1.671,1.226
				c2.973,3.587,7.078,5.22,11.342,6.426c6.184,1.749,11.656,4.844,16.852,8.486c2.132,1.494,4.302,2.914,6.555,4.204
				c0.603,0.345,1.24,0.959,2.344,0.467c-0.703-1.445-1.689-2.484-2.775-3.451c-2.794-2.488-6.002-4.397-9.161-6.343
				c-3.677-2.265-7.361-4.56-11.516-5.928c-4.287-1.412-8.341-3.09-11.632-6.489c-2.982-3.08-5.669-2.992-9.355-0.63
				c-0.511,0.327-0.917,0.989-1.733,0.872c0.071-0.325,0.054-0.538,0.153-0.651c0.394-0.453,0.817-0.881,1.242-1.306
				c1.99-1.989,2.166-3.816,0.427-5.956c-1.371-1.688-2.571-3.485-3.764-5.294c-2.788-4.225-6.164-7.878-10.265-10.888
				c-2.509-1.842-5.331-3.225-7.609-5.409c-3.311-3.174-6.716-6.25-10.063-9.387c-1.077-1.009-1.969-2.182-2.845-3.373
				c-2.575-3.501-4.003-7.62-6.177-11.335c-0.412-0.704-0.729-1.485-0.208-2.191c0.581-0.787,1.526-0.681,2.395-0.59
				c0.639,0.067,1.108,0.45,1.551,0.882c2.167,2.115,4.412,4.157,6.496,6.351c4.399,4.629,8.497,9.557,13.66,13.408
				c0.274,0.204,0.501,0.48,0.721,0.747c4.03,4.908,9.273,8.577,13.537,13.248c0.755,0.827,1.66,1.517,2.494,2.273
				c3.039,2.756,6.852,4.36,10.111,6.793c3.721,2.777,6.903,6.104,9.245,10.065c1.133,1.916,2.378,3.366,4.416,4.064
				c1.028,0.352,1.797,0.907,2.549,1.672c0.918,0.935,1.786,2.291,3.505,1.296c0.409-0.237,0.797,0.144,1.131,0.439
				c0.713,0.632,1.482,1.204,2.165,1.865c3.996,3.867,8.621,6.933,13.056,10.236c1.937,1.443,1.986,1.353,1.442,3.713
				c-0.12,0.52-0.373,0.952-0.586,1.423c-1.254,2.765-3.311,5.145-4.353,7.94c-1.447,3.88-4.569,6.743-5.903,10.631
				c-0.129,0.376-0.505,0.74-0.86,0.956c-3.249,1.983-6.281,4.358-9.772,5.902c-4.987,2.205-10.066,4.201-15.086,6.333
				c-0.819,0.348-2.088,0.677-1.715,1.884c0.391,1.263,1.636,1.009,2.68,0.832c0.256-0.043,0.506-0.141,0.763-0.163
				c2.937-0.251,5.778-1.109,8.737-1.277c4.23-0.241,8.446-0.487,12.543-1.893c2.764-0.949,5.264-2.115,7.337-4.211
				c1.642-1.661,3.453-3.06,5.664-4.035c3.188-1.405,6.638-1.924,9.841-3.274c1.567-0.661,3.214-1.234,4.861-1.761
				c4.581-1.466,9.181-2.515,14.024-2.349c0.847,0.029,1.708-0.264,2.559-0.43c1.915-0.374,3.743-0.153,5.635,0.384
				c4.224,1.199,8.395,2.466,12.943,2.33c4.04-0.121,8.088,0.495,12.073,1.578c2.914,0.792,5.716,2.05,8.761,2.359
				c-0.337-0.721-1.044-0.829-1.697-1.054c-1.064-0.367-2.1-0.782-3.08-1.368c-4.014-2.399-8.256-4.366-12.476-6.359
				c-3.595-1.698-7.274-3.224-10.954-4.736c-5.44-2.235-10.727-4.845-16.363-6.601c-4.543-1.415-9.077-2.863-13.414-4.86
				c-2.372-1.092-4.602-2.404-6.668-3.993c-0.603-0.464-1.168-0.987-0.861-1.885c1.06-0.029,1.765,0.551,2.574,0.82
				c2.682,0.894,4.963,2.603,7.725,3.435c3.723,1.122,7.361,2.518,11.169,3.404c2.183,0.508,4.272,1.377,6.356,2.241
				c3.613,1.497,6.927,3.562,10.425,5.274c3.343,1.636,6.69,3.289,9.903,5.162c5.33,3.108,11.045,4.825,17.127,5.716
				c4.116,0.603,8.25,0.96,12.373,1.456c3.954,0.476,7.925,0.813,11.89,1.189c0.466,0.044,1.085,0.216,1.191-0.729
				c-1.634-1.078-3.527-1.603-5.425-2.169c-5.205-1.551-10.594-1.59-15.929-2.144c-5.073-0.526-10.166-1.095-14.967-3.065
				c-2.649-1.087-5.199-2.363-7.69-3.758c-3.475-1.947-7.185-3.409-10.672-5.343c-5.006-2.777-10.146-5.243-15.898-6.22
				c-1.943-0.33-3.84-1.042-5.794-1.45c-0.619-0.129-1.33-0.27-1.721-1.151c1.764-0.896,3.641-1.206,5.333-2.017
				c4.523-2.168,9.14-4.141,13.715-6.201c5.368-2.417,10.762-4.768,15.469-8.428c2.117-1.647,4.416-3.206,7.008-3.893
				c4.164-1.102,7.576-3.453,10.744-6.109c4.66-3.906,8.594-8.543,12.1-13.513c3.052-4.327,5.311-9.135,8.081-13.635
				c0.591-0.959,1.228-2.328,2.491-1.647c1.249,0.672,0.466,1.965,0.007,2.987c-2.316,5.156-5.369,9.879-8.521,14.546
				c-1.535,2.272-3.113,4.523-4.325,7.082c1.234,0.441,2.155-0.195,3.143-0.373c1.254-0.226,2.363-0.154,2.958,1.354
				c0.698,1.766,2.088,2.909,3.843,3.665c1.93,0.831,1.901,0.945,1.582,2.902c-0.328,2.005-1.092,3.808-2.156,5.521
				c-1.096,1.766-2.223,3.523-3.163,5.373c-1.918,3.774-4.608,6.923-7.793,9.626c-3.774,3.203-7.256,6.697-10.672,10.26
				c-1.494,1.559-2.873,3.248-4.15,4.991c-0.91,1.242-0.614,2.97,0.481,4.05c1.207,1.19,2.209,0.323,3.195-0.398
				c4.588-3.352,9.752-5.619,14.985-7.672c9.312-3.652,17.379-9.286,25.129-15.427c2.781-2.203,5.487-4.499,8.454-6.448
				c5.047-3.314,7.579-7.589,6.069-13.866c-0.812-3.373-1.066-6.874,1.011-10.069c3.862-5.943,3.82-12.638,3.582-19.34
				c-0.053-1.484-0.624-2.899-1.872-3.871c-0.798-0.622-1.602-0.629-2.237,0.275c-0.248,0.353-0.449,0.741-0.655,1.122
				c-1.986,3.675-4.437,7.027-7.094,10.236c-1.935,2.336-3.962,4.585-6.323,6.504c-0.54,0.439-1.228,0.853-1.868,0.228
				c-0.65-0.635-0.203-1.339,0.215-1.863c0.918-1.148,1.957-2.198,2.893-3.332c3.131-3.795,4.931-8.318,6.937-12.731
				c0.965-2.123,1.694-4.422,3.4-6.087c0.795-0.775,1.094-1.448,0.845-2.485c-0.222-0.925-0.255-1.9-0.528-2.806
				c-0.761-2.528-0.799-5.13-0.879-7.725c-0.033-1.085,0.041-2.194,0.68-3.253c1.206,0.452,1.274,1.544,1.591,2.354
				c2.873,7.345,6.621,14.287,9.807,21.487c2.386,5.392,5.655,10.322,8.225,15.623c2.67,5.507,6.858,9.742,11.763,13.265
				c3.452,2.479,6.935,4.882,9.788,8.089c0.728,0.818,1.036,1.54,0.609,2.549c-0.236,0.557-0.411,1.14-0.655,1.693
				c-2.461,5.577-6.375,10.075-10.741,14.198c-1.179,1.114-2.6,2.025-4.146,2.642c-4.094,1.634-8.255,3.112-12.039,5.441
				c-1.102,0.678-2.273,1.253-3.445,1.809c-7.639,3.621-14.495,8.404-20.98,13.798c-2.38,1.98-4.439,4.388-7.22,5.857
				c-2.082,1.099-3.949,2.496-5.856,3.849c-1.365,0.969-2.439,2.202-3.376,3.563c-0.745,1.082-0.595,2.018,0.341,2.987
				c0.829,0.858,1.558,0.402,2.298-0.106c0.286-0.196,0.552-0.421,0.832-0.624c6.531-4.74,13.762-7.927,21.556-9.983
				c4.358-1.15,8.842-1.652,13.182-2.862c2.248-0.626,4.611-0.783,6.812-1.656c0.622-0.247,1.363-0.204,2.051-0.27
				c0.431-0.042,0.905-0.074,1.091,0.442c0.129,0.356-0.075,0.652-0.324,0.915c-3.992,4.207-6.778,9.411-11.192,13.305
				c-1.389,1.225-3.009,2.004-4.379,3.178c-0.45,0.385-1.066,0.735-0.694,1.477c0.35,0.697,1.169,0.757,1.571,0.412
				c1.795-1.543,3.951-1.384,6.069-1.599c0.923-0.094,1.758-0.669,2.572-1.193c3.078-1.983,5.837-4.37,8.416-6.929
				c1.379-1.369,2.893-2.183,4.724-2.471c2.396-0.377,4.798-0.683,7.238-0.737c4.351-0.096,8.655,0.439,12.978,0.736
				c4.448,0.306,5.589-0.473,7.495-4.429c1.235-2.565,2.343-5.21,3.974-7.565c1.477-2.133,3.615-2.604,5.757-1.281
				c1.103,0.681,2.214,1.389,3.18,2.244c4.576,4.051,9.651,7.344,15.156,9.957c3.59,1.704,7.133,3.573,11.135,4.215
				c2.82,0.453,5.628,0.991,8.454,1.398c4.387,0.632,8.63,1.625,12.748,3.399c2.668,1.149,5.669,1.534,8.532,2.215
				c0.456,0.108,1.119,0.261,1.314-0.431c0.135-0.48-0.305-0.771-0.656-1.012c-2.155-1.475-4.491-2.598-6.938-3.493
				c-3.337-1.221-6.624-2.553-9.771-4.218c-2.373-1.256-4.793-2.398-7.347-3.275c-1.958-0.672-3.897-1.461-5.731-2.418
				c-8.071-4.211-14.891-10.125-21.276-16.471c-3.815-3.792-7.527-7.636-11.954-10.717c-3.186-2.217-6.104-4.853-9.819-6.244
				c-0.599-0.224-0.846-0.812-1.163-1.341c-1.706-2.846-1.967-6.2-3.725-9.477c1.963,0.929,3.271,1.888,4.554,2.878
				c4.463,3.443,9.174,6.49,14.131,9.181c7.167,3.89,13.821,8.533,20.114,13.727c2.998,2.475,5.98,5.01,9.343,7.007
				c5.657,3.359,11.315,6.717,17.019,9.993c1.709,0.982,3.345,2.203,5.402,2.451c-0.353-0.372-0.651-0.827-1.068-1.101
				c-4.991-3.277-9.905-6.685-15.029-9.741c-5.971-3.561-11.543-7.595-16.728-12.223c-4.068-3.631-8.354-7.038-12.862-10.095
				c-5.514-3.739-11.266-7.125-16.885-10.712c-1.511-0.964-3.244-1.688-4.143-3.426c-2.874-5.557-7.173-9.915-11.697-14.128
				c-5.556-5.174-10.09-11.204-13.548-17.945c-2.57-5.01-5.19-9.97-8.251-14.698c-1.128-1.743-2.2-3.527-3.204-5.344
				c-3.641-6.591-7.216-13.218-10.871-19.801c-1.53-2.755-2.881-3.36-5.973-2.862c-1.366,0.22-2.697,0.545-3.958,1.208
				c-1.836,0.965-3.82,1.658-5.626,2.672c-3.454,1.939-7.215,3.388-10.096,6.275c-0.899,0.901-4.61,1.049-5.68,0.26
				c-2.648-1.953-5.464-3.691-7.88-5.946c-4.116-3.842-7.756-8.14-11.581-12.259c-1.068-1.15-2.186-2.194-3.453-3.119
				c-4.661-3.405-8.331-7.535-9.729-13.349c-0.231-0.959-0.258-1.794-0.093-2.77c0.301-1.785,0.501-3.605,0.342-5.436
				c-0.122-1.405-0.869-2.241-2.229-2.483c-0.845-0.151-1.724-0.319-2.565-0.239c-2.759,0.263-5.506,0.639-8.259,0.964
				c-1.047,0.124-1.973,0.482-2.892,1.043c-3.178,1.941-6.389,3.855-9.906,5.124c-2.845,1.027-5.773,1.818-8.52,3.12
				c-0.938,0.444-1.905,0.838-2.884,1.181c-0.657,0.23-1.436,0.402-1.761-0.479c-0.286-0.775,0.384-0.991,0.927-1.292
				c4.018-2.231,8.192-4.103,12.473-5.783c2.895-1.136,5.934-1.967,8.615-3.621c0.958-0.591,1.851-1.493,2.886-1.704
				c1.763-0.359,2.694-1.523,3.479-2.851c3.075-5.207,7.111-9.577,11.561-13.612c2.272-2.061,3.731-4.76,5.469-7.236
				c0.561-0.799,0.187-1.338-0.742-1.384c-1.129-0.055-2.267,0.024-3.325,0.456c-1.764,0.72-3.502,1.502-5.254,2.252
				c-0.554,0.237-1.104,0.503-1.68,0.666c-0.541,0.153-1.05,0.006-1.276-0.58c-0.207-0.536-0.106-1.057,0.381-1.384
				c0.647-0.435,1.302-0.898,2.02-1.176c1.868-0.723,3.574-1.745,5.334-2.673c2.826-1.49,5.752-2.374,9.003-1.43
				c0.986,0.286,2.084,0.251,3.102-0.001c2.102-0.52,4.211-1.034,6.268-1.704c2.839-0.926,3.505-3.396,1.437-5.643
				c-2.106-2.288-4.48-4.327-6.621-6.585c-3.704-3.904-7.314-7.942-9.368-12.993c-1.66-4.083-3.046-8.29-4.34-12.507
				c-1.022-3.332-1.458-6.797-1.564-10.464c1.618,0.69,2.223,1.975,2.992,3.095c4.7,6.845,7.992,14.594,13.451,20.952
				c0.056,0.065,0.089,0.148,0.133,0.223c1.858,3.143,4.426,5.519,7.693,7.148c4.805,2.395,8.252,6.213,11.2,10.587
				c0.614,0.912,0.674,1.614,0.214,2.612c-1.597,3.466-2.099,7.166-1.611,10.916c0.257,1.97-0.243,3.437-1.372,5.007
				c-6.877,9.565-14.627,18.469-21.259,28.219c-1.5,2.205-1.695,4.704-0.309,6.998c0.273,0.451,0.504,0.944,1.109,0.971
				c0.777,0.035,0.938-0.66,1.242-1.155c0.133-0.216,0.202-0.482,0.255-0.734c1.109-5.221,4.512-8.824,8.418-12.119
				c5.153-4.347,10.678-8.323,14.507-14.037c0.681-1.016,1.26-0.925,2.039-0.103c4.957,5.226,9.303,10.995,13.425,16.831
				c3.593,5.087,7.491,9.679,12.16,13.745c3.579,3.117,7.023,6.345,9.086,10.865c1.934,4.239,5.226,7.511,9.005,10.245
				c2.039,1.475,4.039,3.035,5.684,4.921c1.941,2.225,3.968,4.358,6.105,6.378c1.001,0.946,1.534,2.052,1.949,3.297
				c1.911,5.738,3.235,11.701,6.475,16.934c0.268,0.433,0.428,0.951,0.555,1.45c1.3,5.143,4.455,9.104,8.029,12.837
				c3.652,3.814,7.761,7.172,11.189,11.198c1.393,1.637,2.674,3.282,5.202,3.349c-3.515-4.584-6.293-9.6-10.237-13.761
				c-0.657-0.694-1.366-1.355-1.421-2.399c-0.085-1.616-1.123-2.443-2.469-3.037c-1.59-0.702-2.55-1.895-3.171-3.547
				c-0.85-2.262-1.731-4.516-2.952-6.636c-2.029-3.52-3.911-7.126-5.821-10.715c-0.422-0.793-0.866-1.62-0.816-2.8
				c2.333,1.402,4.383,2.859,6.619,3.927c3.796,1.812,6.399,4.738,8.22,8.367c1.861,3.709,3.679,7.459,4.953,11.425
				c1.537,4.784,2.891,9.628,5.73,13.88c0.978,1.465,2.091,2.731,3.57,3.707c3.353,2.215,6.263,4.903,8.664,8.151
				c2.317,3.135,4.619,6.291,7.552,8.909c4.09,3.651,7.554,7.865,10.884,12.193c1.796,2.334,3.338,4.883,5.287,7.075
				c4.664,5.244,9.859,9.97,15.185,14.523c4.893,4.182,10.429,7.424,16.323,10.024c1.668,0.736,3.413,1.063,5.268,0.485
				c-1.425-0.816-3-1.205-4.414-2.003c-4.477-2.527-8.508-5.673-12.339-9.039c-4.094-3.597-7.807-7.629-11.904-11.221
				c-3.495-3.064-6.377-6.561-8.956-10.389c-3.005-4.46-6.31-8.689-10.157-12.478c-3.08-3.033-6.284-5.946-9.042-9.299
				c-2.928-3.559-6.18-6.751-10.201-9.122c-1.648-0.973-2.885-2.468-3.745-4.221c-1.458-2.971-2.451-6.103-3.155-9.324
				c-1.225-5.604-2.933-11.066-5.305-16.273c-2.004-4.4-4.853-8.091-9.493-10.232c-4.998-2.306-9.148-5.838-13.12-9.652
				c-3.748-3.599-6.842-7.844-10.926-11.081c-5.187-4.111-8.459-9.556-11.145-15.437c-2.417-5.292-5.258-10.342-8.769-14.978
				c-2.31-3.051-4.311-6.262-5.973-9.699c-2.113-4.369-4.406-8.633-7.299-12.554c-2.521-3.418-4.418-7.252-7.042-10.607
				c-0.526-0.673-1.505-1.095-1.568-1.994c-0.072-1.027,1.12-1.201,1.672-1.836c1.4-1.611,2.084-1.584,3.356,0.058
				c4.292,5.541,8.782,10.929,12.305,17.041c2.418,4.194,5.412,8.05,7.288,12.568c1.063,2.558,2.212,5.082,3.399,7.585
				c2.086,4.397,4.364,8.682,8.047,12.009c1.41,1.273,2.967,2.369,4.045,4.002c1.144,1.732,2.407,3.389,3.659,5.048
				c2.611,3.461,5.544,6.641,8.474,9.833c2.033,2.216,4.877,3.193,7.103,5.087c1.515,1.289,2.984,2.733,4.718,3.643
				c3.534,1.854,7.016,3.773,10.304,6.035c2.829,1.947,6.231,2.55,9.294,3.95c0.636,0.29,1.185,0.523,1.687,1.065
				c2.82,3.05,5.322,6.362,7.974,9.55c0.549,0.66,1.01,1.409,1.408,2.171c0.302,0.579,0.173,1.2-0.342,1.656
				c-0.593,0.526-1.153,0.171-1.645-0.174c-0.345-0.242-0.587-0.627-0.898-0.924c-1.705-1.624-2.857-3.702-4.435-5.423
				c-1.512-1.649-2.846-3.659-4.98-4.438c-1.853-0.677-3.77-1.263-5.669-1.856c-0.419-0.131-0.866-0.347-1.235-0.067
				c-0.56,0.424-0.126,0.913,0.021,1.393c0.896,2.921,2.442,5.544,3.75,8.276c1.021,2.133,1.74,4.344,1.591,6.752
				c-0.128,2.061,0.5,3.902,1.418,5.725c2.938,5.831,7.57,10.065,12.802,13.734c1.16,0.813,2.103,1.725,2.832,2.966
				c1.33,2.261,3.123,4.225,5.214,5.74c4.196,3.04,7.544,6.82,10.688,10.883c3.869,5,7.775,9.987,12.171,14.548
				c1.882,1.953,3.342,4.102,4.411,6.62c1.559,3.675,3.385,7.279,6.156,10.199c4.057,4.274,8.444,8.217,13.339,11.529
				c4.671,3.161,9.943,5.26,14.757,8.178c0.778,0.471,1.661,0.608,2.428-0.057c0.521-0.452,1.011-0.542,1.655-0.285
				c1.994,0.795,4.117,0.431,6.178,0.578c1.845,0.132,2.647-0.826,2.682-2.675c0.023-1.221-0.709-1.878-1.586-2.5
				c-3.61-2.56-7.45-4.745-11.265-6.974c-4.41-2.577-8.974-4.912-12.963-8.157c-3.02-2.457-5.86-5.187-9.099-7.309
				c-2.443-1.6-4.087-3.679-5.561-6.022c-2.259-3.59-4.406-7.251-6.71-10.811c-1.196-1.847-1.724-3.879-2.352-5.919
				c0.912-0.369,1.419,0.152,2.024,0.456c2.968,1.492,5.412,3.722,8.069,5.653c4.269,3.102,8.328,6.588,12.9,9.154
				c5.443,3.055,10.568,6.588,15.911,9.781c3.799,2.27,7.567,4.487,11.69,6.136c3.124,1.25,6.187,2.67,9.041,4.528
				c1.219,0.794,2.623,1.536,4.719,1.574c-1.181-1.228-2.211-1.831-3.261-2.357c-2.329-1.169-4.475-2.625-6.656-4.036
				c-10.478-6.777-20.602-14.02-29.918-22.356c-5.255-4.702-11.204-8.47-17.27-11.975c-7.115-4.111-14.662-7.445-21.764-11.6
				c-1.021-0.597-2.053-1.212-2.475-2.596c2.338-0.891,4.681-1.184,6.983-1.152c8.381,0.117,16.34,1.973,23.47,6.558
				c7.95,5.111,16.334,9.43,24.744,13.693c5.584,2.83,10.893,6.031,15.638,10.134c3.875,3.35,8.15,6.137,12.518,8.785
				c0.664,0.402,1.353,1.043,2.592,0.383c-1.071-1.037-1.988-1.874-3.025-2.648c-3.464-2.587-7.281-4.706-10.352-7.818
				c-2.672-2.707-5.311-5.439-8.174-7.964c-3.572-3.15-7.043-6.439-10.961-9.134c-5.247-3.61-9.967-7.751-14.207-12.485
				c-0.972-1.085-1.993-2.143-3.223-3.005c-3.396-2.383-7.261-3.657-11.162-4.793c-5.847-1.702-11.366-4.197-16.833-6.799
				c-5.768-2.745-10.389-7.157-15.384-11.016c-1.524-1.178-2.75-2.628-3.883-4.163c-0.406-0.551-0.826-1.128-0.479-1.841
				c2.098,0,4.164,0.056,6.225-0.016c2.085-0.073,2.979-0.901,3.277-2.947c0.257-1.765,0.046-3.404-1.135-4.905
				c-2.515-3.197-4.828-6.557-7.406-9.701c-3.627-4.424-5.581-9.289-4.902-15.097c0.331-2.83-0.874-5.25-2.504-7.464
				c-1.034-1.404-2.328-2.566-3.723-3.599c-2.491-1.846-4.399-4.134-5.605-7.01c-0.919-2.191-2.226-4.111-4.148-5.564
				c-0.998-0.755-1.642-1.758-2.113-2.903c-0.954-2.32-1.92-4.635-2.911-6.941c-0.93-2.165-4.605-4.439-6.754-3.842
				c-2.406,0.669-4.898,1.006-7.213,2.122c-3.032,1.462-6.181,2.719-9.367,3.81c-1.717,0.588-3.333,1.382-5.035,1.976
				c-0.404,0.141-0.898,0.203-1.19-0.22c-0.382-0.552-0.036-1.008,0.371-1.343c1.222-1.007,2.627-1.614,4.165-2.028
				c3.958-1.065,7.692-2.729,11.053-5.045c3.19-2.198,6.322-4.204,10.436-3.982c1.704,0.092,2.058-0.311,2.108-1.923
				c0.081-2.594,0.165-5.185-0.189-7.788c-0.444-3.263-0.595-6.563-0.467-9.86c0.053-1.368,0.697-1.665,1.808-0.906
				c0.351,0.24,0.63,0.587,0.932,0.895c1.547,1.573,2.737,3.424,3.365,5.5c1.571,5.189,4.322,9.813,6.675,14.632
				c1.413,2.893,3.113,5.59,4.993,8.198c2.475,3.431,5.039,6.774,6.38,10.931c1.965,6.088,6.669,10.213,11.093,14.49
				c5.36,5.182,11.326,9.67,16.836,14.684c1.195,1.087,2.01,2.268,2.565,3.794c1.896,5.212,3.102,10.643,5.037,15.833
				c1.602,4.298,3.425,8.515,5.239,12.73c0.436,1.014,1.142,1.949,1.876,2.786c0.747,0.851,1.458,0.685,2.051-0.298
				c0.6-0.996,0.756-2.117,0.852-3.242c0.439-5.155-0.617-10.069-3.099-14.529c-1.757-3.157-2.645-6.549-3.722-9.908
				c-0.257-0.802-0.662-1.766,0.226-2.737c2.047,2.053,4.009,3.986,5.934,5.957c5.263,5.388,10.231,11.102,15.964,15.981
				c5.159,4.391,10.255,8.8,14.773,13.857c2.619,2.931,5.838,5.106,9.076,7.301c2.991,2.028,5.632,4.386,7.281,7.874
				c2.677,5.662,6.175,10.827,11.049,14.932c1.252,1.055,2.327,2.318,3.513,3.454c3.627,3.473,6.727,7.462,10.592,10.704
				c2.722,2.283,5.4,4.621,8.052,6.984c0.886,0.789,1.813,1.516,2.242,2.781c1.309,3.853,2.809,7.64,4.145,11.483
				c0.697,2.006,0.799,4.098-0.104,6.078c-0.605,1.327-1.523,2.502-1.386,4.1c0.055,0.644-0.484,1.093-1.04,1.389
				c-0.763,0.408-1.548,0.775-2.319,1.168c-1.34,0.682-1.462,1.165-0.559,2.387c0.7,0.947,1.562,1.678,2.841,1.46
				c5.393-0.92,10.912-0.501,16.295-1.543c0.753-0.146,1.572-0.155,2.33-0.033c2.479,0.396,5.014,0.651,7.396,1.385
				c3.74,1.152,7.621,1.631,11.372,2.698c1.068,0.304,2.227,0.312,3.349,0.4c1.339,0.105,1.758-0.883,2.109-1.898
				C717.502,373.712,717.539,372.589,716.423,372.032z M122.881,321.062c-0.444,0.901-0.788,1.926-1.917,2.623
				c0-2.723,0.333-5.281-0.08-7.712c-0.581-3.416,0.818-5.747,3.018-8.025c2.683-2.778,4.621-6.077,5.726-9.782
				c0.59-1.978,0.847-4.055,1.258-6.086c0.136-0.672,0.09-1.485,0.73-1.884c2.173-1.355,2.718-3.709,3.685-5.806
				c0.242-0.524,0.268-1.33,1.07-1.212c0.629,0.092,0.975,0.716,1.142,1.307c0.216,0.764,0.105,1.525-0.126,2.298
				c-0.554,1.858-0.813,3.829-0.212,5.647c0.785,2.373,0.172,4.509-0.765,6.52c-2.197,4.712-4.6,9.332-7.964,13.358
				C126.207,314.985,124.421,317.938,122.881,321.062z M164.735,290.553c-1.332,3.762-3.851,6.65-6.694,9.153
				c-0.944-0.246-0.819-0.849-0.887-1.322c-0.141-0.973-0.839-1.282-1.652-1.355c-1.859-0.166-3.577,0.113-5.111,1.367
				c-2.688,2.197-5.164,4.593-7.484,7.174c-2.948,3.281-5.903,6.565-9.421,9.272c-0.189,0.153-0.378,0.306-0.566,0.458
				c0.001,0.001-0.173,0.03-0.173,0.03l0.027-0.175c0.165-0.176,0.331-0.352,0.496-0.528c2.682-4.629,5.252-9.322,9.37-12.931
				c2.401-2.104,4.697-4.336,6.934-6.615c1.325-1.35,2.938-2.023,4.617-2.745c2.378-1.022,4.635-2.267,7.242-2.749
				c2.204-0.408,3.562-2.111,4.525-3.985c2.53-4.926,3.486-10.12,2.131-15.582c-0.389-1.566-0.421-2.93,0.302-4.49
				c1.013-2.187,1.451-4.488,0.903-7.055c-0.419-1.963,0.282-4.067,1.022-6.024c0.535-1.416,0.92-2.89-0.888-3.805
				c-0.533-0.27-0.479-0.694-0.167-1.064c0.557-0.66,1.153-1.289,1.758-1.906c2.077-2.117,2.558-2.026,3.805,0.59
				c0.913,1.916,1.049,3.881,0.119,5.762c-1.322,2.674-1.261,5.192,0.036,7.879c0.658,1.363,1.151,2.876,1.214,4.476
				c0.06,1.509-0.381,2.787-1.604,3.627c-2.991,2.053-4.111,5.107-4.352,8.463c-0.244,3.397-1.243,6.386-3.254,9.132
				C165.912,287.067,165.345,288.832,164.735,290.553z M237.868,321.474c0.462,0.292,0.781,0.702,0.495,1.225
				c-0.65,1.489-0.146,2.775,0.376,4.079c0.964,2.407,1.732,4.867,2.338,7.401c0.578,2.418,2.131,4.512,2.58,7.024
				c0.416,2.328-0.424,4.418-1.012,6.563c-0.043,0.158-0.434,0.342-0.624,0.306c-0.199-0.038-0.478-0.31-0.504-0.508
				c-0.32-2.427-1.514-4.588-2.082-6.939c-0.826-3.416-3.061-4.753-6.551-4.856c-3.321-0.098-6.068,0.959-8.693,2.742
				c-0.355,0.241-0.755,0.423-1.15,0.598c-0.657,0.291-1.213,0.042-1.607-0.47c-0.519-0.674,0.033-1.114,0.469-1.526
				c1.821-1.719,3.664-3.415,5.479-5.141c2.88-2.738,5.629-5.591,7.674-9.038c0.309-0.521,0.563-1.085,1.094-1.426
				C236.71,321.149,237.313,321.122,237.868,321.474z M244.935,274.836c-0.802,2.498-0.757,5.134-1.294,7.669
				c-0.506,2.388-1.478,4.61-2.789,6.677c-1.844,2.906-3.02,6.041-3.159,9.507c-0.116,2.875-1.36,5.156-3.571,6.925
				c-2.457,1.965-4.508,4.324-6.445,6.765c-3.308,4.17-7.161,7.749-11.328,11.027c-3.203,2.52-6.336,5.132-9.069,8.172
				c-2.567,2.853-5.853,4.86-8.618,7.492c-6.272,5.97-12.9,11.563-18.921,17.8c-2.226,2.306-4.402,4.659-6.594,6.997
				c-1.412,1.506-2.913,2.902-4.786,4.178c-0.435-1.098,0.13-1.658,0.386-2.254c2.595-6.041,5.278-12.044,7.826-18.104
				c1.053-2.504,1.489-5.135,0.839-7.883c-0.584-2.474-0.71-4.987,0.034-7.466c0.595-1.984-0.115-3.851-0.78-5.573
				c-1.079-2.792,0.189-5.303,0.521-7.909c0.086-0.672,1.102-1.264,1.755-1.817c1.851-1.567,3.723-3.111,5.61-4.634
				c2.17-1.751,4.11-3.694,5.634-6.055c0.854-1.323,2.104-2.302,3.384-3.204c2.947-2.078,6.439-2.078,9.468-0.056
				c4.316,2.881,8.716,5.638,12.828,8.817c0.721,0.558,1.576,1.541,2.462,0.688c0.876-0.843,0.323-1.892-0.358-2.787
				c-1.414-1.861-2.831-3.711-4.495-5.369c-1.286-1.282-2.623-2.56-3.661-4.035c-2.847-4.044-6.742-6.639-11.181-8.567
				c-1.666-0.724-3.128-1.841-4.867-2.448c-1.093-0.381-1.748-1.352-2.397-2.294c-1.349-1.958-3.082-3.477-5.229-4.554
				c-3.824-1.916-3.82-3.984-4.034-7.999c-0.031-0.576,0.294-0.987,0.755-1.282c0.8-0.513,1.561-1.081,2.493-1.377
				c2.145-0.681,4.262-1.455,6.414-2.11c1.659-0.505,2.695-1.494,2.955-3.233c0.237-1.585,0.848-2.969,1.988-4.136
				c1.032-1.056,1.321-2.421,1.275-3.849c-0.059-1.821-0.186-3.638-0.681-5.406c-1.045-3.737-0.894-7.557-0.771-11.372
				c0.011-0.339,0.077-0.692,0.492-0.966c0.85,0.245,0.939,0.994,1.047,1.749c0.341,2.395,0.764,4.781,1.028,7.184
				c0.36,3.286,1.185,6.277,4.068,8.341c1.171,0.838,1.644,2.228,2.121,3.519c2.305,6.239,5.545,11.908,10.065,16.816
				c1.057,1.148,2.082,2.326,3.183,3.43c0.478,0.479,1.109,0.991,1.846,0.645c0.79-0.37,1.086-1.189,0.953-1.983
				c-0.511-3.06-0.641-6.176-1.97-9.097c-1.898-4.172-3.553-8.454-5.333-12.681c-0.58-1.377-0.623-2.616,0.359-3.892
				c1.117-1.452,1.232-3.182,1.027-4.965c-0.154-1.334-0.836-3.258,0.478-3.795c1.256-0.513,2.199,1.356,3.15,2.307
				c1.159,1.16,2.242,2.409,3.312,3.645c3.049,3.523,6.978,5.872,10.61,8.658c4.492,3.445,8.875,7.22,11.599,12.43
				C244.864,273.687,245.13,274.229,244.935,274.836z M249.033,269.001c-0.382,0.201-0.789,0.362-1.152,0.592
				c-0.911,0.578-1.633,0.461-2.139-0.529c-2.195-4.294-6.257-6.861-9.468-10.214c-0.907-0.947-2.119-1.497-3.269-2.1
				c-4.653-2.44-8.37-6.092-12.306-9.462c-1.245-1.066-2.405-2.241-3.979-2.863c-0.443-0.175-1.115-0.332-0.995-0.99
				c0.112-0.61,0.727-0.654,1.256-0.68c0.259-0.013,0.52-0.002,0.272-0.002c2.59-0.092,4.221,0.96,5.515,2.368
				c1.257,1.368,2.641,2.433,4.269,3.3c1.283,0.683,2.503,1.481,3.579,2.541c1.226,1.208,2.731,2.069,4.459,2.544
				c3.026,0.833,5.911,1.889,7.625,4.893c0.534,0.935,1.563,1.601,2.41,2.34c1.917,1.672,3.411,3.685,4.676,5.861
				C250.558,267.926,250.382,268.29,249.033,269.001z M462.562,365.608c-0.014,0.012-0.109-0.071-0.167-0.111
				c0.081-0.093,0.162-0.185,0.243-0.278c0.053,0.044,0.105,0.086,0.157,0.129C462.72,365.438,462.65,365.534,462.562,365.608z
				 M464.79,260.393c0.221-1.045-0.071-2.64,1.24-2.822c1.027-0.142,1.329,1.397,1.893,2.218c2.564,3.725,4.567,7.769,6.379,11.89
				c1.852,4.212,3.936,8.3,6.226,12.276c2.127,3.693,3.616,7.672,5.466,11.486c3.971,8.185,9.332,15.359,15.948,21.606
				c1.824,1.723,3.554,3.545,5.318,5.33c0.174,0.176,0.284,0.416,0.41,0.606c-0.09,0.191-0.124,0.391-0.24,0.47
				c-0.114,0.079-0.368,0.107-0.464,0.033c-0.408-0.315-0.855-0.622-1.152-1.03c-2.08-2.856-4.943-4.8-7.747-6.842
				c-5.091-3.709-9.203-8.224-12.18-13.891c-3.947-7.513-7.717-15.103-11.251-22.815c-0.144-0.315-0.243-0.671-0.457-0.93
				c-3.661-4.433-6.008-9.697-9.187-14.429C464.201,262.371,464.567,261.447,464.79,260.393z M338.486,217.224
				c1.65-2.622,3.321-5.231,5.021-7.821c1.023-1.558,2.836-0.958,4.201-1.455c0.493-0.002,0.924,0.047,1.105,0.538
				c0.168,0.455,0.008,0.859-0.313,1.176c-1.16,1.151-2.341,2.274-3.433,3.5c-1.6,1.795-3.448,3.36-4.965,5.242
				c-0.354,0.439-0.818,1.1-1.487,0.664C337.893,218.597,338.106,217.827,338.486,217.224z M330.724,276.094
				c0.72-0.615,1.514-1.144,2.25-1.742c2.491-2.029,4.66-4.352,6.492-7c0.93-1.345,1.821-2.743,3.265-3.645
				c0.416-0.26,0.71-0.854,1.317-0.489c0.529,0.319,0.435,0.887,0.432,1.506c-1.189,3.564-0.589,7.451-1.413,11.19
				c-0.493,2.235-0.284,4.625-0.379,6.945c-0.021,0.516,0.065,1.043-0.007,1.549c-0.1,0.704-0.389,1.343-1.136,1.604
				c-0.806,0.281-1.263-0.215-1.744-0.765c-1.487-1.703-2.754-3.522-3.561-5.662c-1.023-2.713-1.456-2.854-3.855-1.318
				c-0.735,0.471-1.41,0.789-2.066,0.054C329.553,277.465,330.01,276.704,330.724,276.094z M290.616,257.757
				c-4.067,4.032-7.136,8.865-9.094,14.317c-0.742,2.066-0.594,4.078,0.39,6.041c0.504,1.004,1.019,2.009,1.417,3.057
				c0.174,0.458,0.129,1.066-0.43,1.366c-0.442,0.237-0.838,0.023-1.174-0.281c-1.406-1.271-2.963-2.387-4.452-3.522
				c-3.391-2.585-6.519-5.72-10.952-6.651c-0.831-0.174-1.677-0.457-2.319-1.104c-1.188-1.198-0.87-2.448,0.794-2.814
				c1.095-0.241,2.258-0.514,3.346-0.386c2.728,0.32,4.929-0.915,7.016-2.271c1.743-1.132,3.5-2.225,5.293-3.271
				c0.67-0.391,1.297-0.873,1.884-1.383c5.744-4.99,11.347-10.123,16.172-16.044c1.367-1.678,2.82-3.287,4.207-4.949
				c0.629-0.753,1.282-1.421,2.351-1.413c0.694,0.005,1.178,0.266,1.188,1.054c0.01,0.665-0.401,1.111-0.806,1.572
				C300.534,246.662,295.92,252.498,290.616,257.757z M370.431,294.435c1.422-1.571,2.858-3.046,5.281-2.681
				c0.379,0.057,0.845-0.183,1.216-0.387c2.62-1.443,5.009-6.719,4.527-9.678c-1.044-6.411-2.606-12.697-4.323-18.954
				c-0.667-2.43-0.832-4.957-0.767-7.478c0.066-2.585-1.176-4.644-3.095-5.987c-1.177-0.823-2.765-1.23-4.073-2.032
				c-0.439-0.269-0.946-0.443-1.436-1.495c2.907,0.042,5.43-0.064,7.27,2.271c0.429,0.544,0.836,1.126,1.353,1.575
				c1.12,0.973,2.563,0.726,3.284-0.55c0.338-0.598,0.707-1.262,0.759-1.92c0.16-2.03,1.279-3.531,2.426-5.074
				c0.823-1.108,1.491-2.332,2.209-3.516c1.209-1.991,2.588-2.599,4.805-2.009c0.747,0.199,1.513,0.459,2.167,0.859
				c4.874,2.983,10.136,5.26,14.943,8.375c5.882,3.812,11.856,7.46,17.363,11.844c3.376,2.688,7.121,4.912,10.684,7.368
				c2.505,1.727,2.556,2.027,1.573,4.941c-0.451,1.338-1.199,2.493-1.971,3.64c-6.752,10.037-14.66,19.068-23.685,27.117
				c-4.139,3.692-7.988,7.682-11.836,11.663c-5.605,5.799-11.536,11.198-18.061,15.954c-2.162,1.576-4.016,3.57-6.163,5.168
				c-4.164,3.098-8.448,6.035-12.656,9.074c-1.12,0.809-2.182,1.709-3.204,2.641c-0.645,0.587-1.226,0.837-2.084,0.449
				c-2.287-1.034-4.756-1.602-7.011-2.74c-1.897-0.958-3.464-2.139-4.501-4.113c-1.168-2.222-2.345-4.435-3.442-6.694
				c-0.575-1.184-0.733-2.232-0.065-3.436c1.398-2.516,0.671-5.208,0.491-7.841c-0.319-4.658-1.294-9.248-1.396-13.935
				c-0.047-2.153-1.977-3.362-3.479-3.776c-3.714-1.023-6.617-3.35-9.846-5.148c-1.968-1.095-3.898-2.257-5.837-3.403
				c-2.26-1.335-4.497-1.437-6.922-0.285c-3.141,1.492-6.612,1.996-9.93,2.963c-0.586,0.171-1.217,0.19-1.784-0.094
				c-0.569-0.285-1.012-0.766-1.012-1.411c0-0.585,0.523-0.865,1.031-1.034c0.984-0.328,1.982-0.611,2.966-0.939
				c3.036-1.013,6.069-2.035,9.1-3.064c1.089-0.37,1.92-1.16,2.836-1.808c1.57-1.111,2.618-1.25,3.901,0.026
				c2.824,2.81,6.379,4.401,9.75,6.344c2.916,1.682,5.517,3.897,7.824,6.344c3.891,4.126,3.811,4.213,9.178,5.57
				c1.173,0.297,2.38,0.514,3.584,0.626c3.026,0.281,4.53-0.756,5.416-3.658c0.404-1.323,0.726-2.672,1.128-3.997
				c0.251-0.825,0.506-1.664,0.89-2.431c1.075-2.148,2.067-2.619,4.403-2.203c0.426,0.076,0.848,0.185,1.263,0.309
				C367.408,296.368,369.076,295.933,370.431,294.435z M377.875,177.392c-2.41,3.216-5.145,6.1-8.384,8.446
				c-1.933,1.4-3.552,3.04-4.871,4.976c-2.797,4.107-6.572,7.359-9.654,11.212c-0.951,1.189-2.377,0.808-3.573,1.144
				c-0.662,0.186-1.084-1.019-0.531-1.807c0.643-0.918,1.356-1.828,2.198-2.555c1.134-0.979,1.855-2.169,2.581-3.455
				c1.703-3.019,3.787-5.799,5.846-8.588c1.697-2.298,3.459-4.549,5.092-6.892c2.165-3.105,3.379-6.609,3.989-10.329
				c0.223-1.36,0.398-2.729,0.641-4.086c0.074-0.413,0.191-0.911,0.472-1.177c1.182-1.119,1.686-2.587,2.268-4.028
				c0.161-0.398,0.384-0.779,0.633-1.13c0.458-0.644,1.116-0.777,1.848-0.595c0.747,0.185,0.87,0.809,0.861,1.423
				c-0.014,0.951-0.116,1.901-0.216,3.375c-0.396,1.609-0.053,3.598,1.036,5.488c0.341,0.593,0.576,1.266,0.753,1.931
				C379.488,173.092,379.447,175.293,377.875,177.392z M441.712,170.9c-0.472,0.317-0.654,0.086-0.79-0.12
				c-2.356-3.58-5.709-5.998-9.429-7.927c-3.393-1.76-6.112-4.16-8.092-7.447c-0.843-1.4-1.877-2.689-3.015-3.888
				c-1.495-1.575-2.74-3.367-3.817-5.234c-2.863-4.967-6.247-9.521-10.595-13.889c2.105-0.458,3.273,0.644,4.145,1.691
				c4.304,5.173,9.85,9.268,13.238,15.23c5.334,5.039,9.86,10.889,15.601,15.518c0.27,0.217,0.491,0.521,0.791,0.669
				C442.24,166.729,441.877,168.872,441.712,170.9z M450.001,189.916c2.226,4.501,4.683,8.874,7.21,13.21
				c1.793,3.077,2.882,6.474,4.274,9.732c1.952,4.568,4.986,8.493,7.471,12.743c1.134,1.939,2.072,3.992,3.102,5.991
				c0.24,0.467,0.515,0.924-0.033,1.618c-5.368-4.598-10.7-9.086-13.616-15.544c-2.645-5.858-6.684-10.907-9.294-16.768
				c-1.164-2.616-2.27-5.245-2.795-8.063c-0.3-1.605-0.542-3.277,0.285-4.828c0.572-1.074,1.247-1.174,1.994-0.269
				C449.145,188.401,449.62,189.146,450.001,189.916z M497.211,229.141c0.325-0.683,0.975-0.608,1.581-0.587
				c0.172,0.006,0.342,0.051,0.942,0.147c1.018,0.081,2.268-0.506,3.506-1.13c0.722-0.364,1.488-0.682,2.154-0.024
				c0.589,0.583,0.232,1.275-0.021,1.929c-0.878,2.272,0.251,4.024,1.57,5.674c1.242,1.553,2.574,3.034,3.861,4.551
				c0.279,0.329,0.546,0.671,0.795,1.023c0.338,0.478,0.914,1.015,0.28,1.559c-0.447,0.383-0.949-0.013-1.367-0.359
				c-0.8-0.661-1.707-1.209-2.43-1.943c-2.921-2.965-6.406-5.263-9.444-8.086c-0.317-0.294-0.663-0.56-0.956-0.876
				C497.187,230.488,496.861,229.878,497.211,229.141z M560.095,234.242c-1.195-0.998-2.292-2.115-3.514-3.076
				c-4.625-3.639-7.469-8.458-9.795-13.781c-1.485-3.398-4.328-6.028-6.414-9.105c-3.648-5.38-6.554-11.185-9.6-16.909
				c-0.281-0.529-0.473-1.113-0.138-2.078c1.8,1.477,2.983,3.202,4.105,4.904c3.769,5.719,7.957,11.089,12.368,16.334
				c5.017,5.967,9.262,12.503,12.194,19.81c0.633,1.578,1.567,3.035,2.377,4.577C560.753,235.339,560.499,234.58,560.095,234.242z"
				/>
			<path d="M612.834,310.209c-0.66,0.908-1.284,1.844-1.885,2.792c-0.591,0.931-0.492,1.77,0.407,2.491
				c0.857,0.687,1.456,0.077,2.054-0.393c1.154-0.908,2.208-1.939,3.489-2.691c3.614-2.12,7.781-0.716,8.936,2.93
				c0.623,1.965,1.608,3.832,2.828,5.536c5.609,7.831,11.93,15.037,19.021,21.557c1.642,1.51,3.327,2.992,5.555,3.807
				c-0.868-2.334-2.543-4.101-3.972-6.021c-4.082-5.482-7.905-11.172-12.573-16.195c-4.053-4.361-7.138-9.321-9.628-14.707
				c-0.867-1.876-1.462-3.911-2.747-5.575c-1.097-1.421-2.094-3.054-4.363-2.592c-0.722,0.147-1.312-0.381-1.891-0.745
				c-1.177-0.741-2.449-1.268-3.708-1.848c-2.278-1.048-4.764-1.571-6.931-2.911c-1.09-0.674-2.334-1.173-3.574-1.508
				c-0.97-0.262-2.194-0.402-2.829,0.673c-0.588,0.996,0.207,1.824,0.789,2.55c1.052,1.311,2.57,2.047,3.976,2.871
				c2.533,1.484,5.015,3.052,7.744,4.211c2.583,1.097,2.615,1.67,0.792,3.969C613.84,309.019,613.291,309.58,612.834,310.209z"/>
			<path d="M665.236,363.362c-0.391-0.181-0.811-0.301-1.218-0.449c-1.141-0.416-2.286-0.789-2.83-2.071
				c-0.15-0.353-0.589-0.656-0.966-0.827c-2.778-1.266-5.091-3.256-7.648-4.864c-2.863-1.801-4.395-1.744-7.041,0.329
				c-1.594,1.249-1.547,2.529,0.197,3.572c0.735,0.44,1.623,0.627,2.346,1.082c1.391,0.875,1.541,1.704,0.663,3.287
				c-0.291,0.524-0.306,0.97,0.006,1.443c0.285,0.432,0.618,0.833,0.89,1.273c1.132,1.834,0.608,3.03-1.471,3.454
				c-0.845,0.173-1.849,0.191-2.478,0.674c-1.657,1.273-3.535,1.219-5.426,1.329c-3.244,0.189-6.486,0.414-9.729,0.623
				c0.012,0.233,0.023,0.467,0.035,0.7c4.791,0.762,9.592,0.81,14.353-0.312c1.304-0.307,2.494-0.38,3.814-0.156
				c1.427,0.242,2.887,0.513,4.377,0.212c2.457-0.497,4.92-0.985,7.401-1.334c2.06-0.29,3.932-0.683,4.671-3.002
				c0.117-0.366,0.57-0.623,0.864-0.934C667.878,365.453,667.69,364.499,665.236,363.362z"/>
			<path d="M271.927,336.929c-0.456,1.103,0.513,3.052,1.566,3.461c1.366,0.53,1.78-0.639,2.422-1.41
				c1.826-2.192,3.603-4.418,5.715-6.365c1.647-1.519,2.51-3.495,2.568-5.128c-0.149-3.679-0.919-6.421-3.24-8.602
				c-2.018-1.895-3.918-3.916-5.854-5.897c-0.603-0.617-1.331-1.643-2.094-0.995c-0.728,0.617-1.585,1.621-1.138,2.911
				c0.142,0.409,0.249,0.83,0.367,1.247c0.827,2.912,0.85,5.769-0.566,8.533c-0.118,0.229-0.189,0.483-0.294,0.719
				c-0.452,1.019-0.487,2.01,0.189,2.956c0.855,1.195,0.976,2.553,0.936,3.967C272.46,333.879,272.55,335.419,271.927,336.929z"/>
			<path d="M483.128,263.542c-0.266,1.394,0.442,1.99,0.859,2.711c2.475,4.271,4.809,8.604,6.68,13.192
				c1.633,4.003,3.12,8.092,5.402,11.796c4.186,6.792,9.025,13.132,13.703,19.58c0.622,0.857,1.329,1.73,2.835,2.562
				c-0.566-1.007-0.852-1.514-1.135-2.022c-1.855-3.323-3.963-6.498-5.512-10c-4.375-9.892-9.063-19.645-13.078-29.698
				c-1.574-3.942-3.58-7.69-6.321-10.982c-0.385-0.463-0.717-1.166-1.878-1.036c2.628,4.447,5.167,8.699,5.902,13.699
				C487.894,270.336,486.778,266.132,483.128,263.542z"/>
			<path d="M483.028,318.465c1.328,0.721,2.192,1.684,2.536,3.078c0.474,1.926,1.786,3.005,3.571,3.353
				c2.363,0.461,3.98,1.979,5.667,3.454c0.911,0.796,1.789,1.631,2.713,2.411c0.51,0.432,1.041,0.931,1.906,0.542
				c-0.344-2.465,0.219-5.185-2.221-7.022c-0.23-0.174-0.272-0.625-0.359-0.958c-0.235-0.901-0.827-1.548-1.592-1.968
				c-3.359-1.847-6.172-4.352-9.022-6.892c-3.132-2.792-4.74-6.225-5.811-10.107c-0.698-2.53-0.878-5.29-2.899-7.3
				c0.516,4.96,0.435,10.003,2.081,14.806c0.109,0.317,0.136,0.696,0.085,1.028C479.256,315.678,480.884,317.302,483.028,318.465z"
				/>
			<path d="M477.492,297.025c0.01,0.01,0.017,0.021,0.026,0.03c-0.001-0.014-0.003-0.029-0.004-0.043L477.492,297.025z"/>
			<path d="M562.449,253.732c-2.021-2.386-3.935-4.85-4.18-8.162c-0.039-0.521-0.225-1.007-0.6-1.409
				c-0.85-0.911-2.364-0.61-2.686,0.59c-0.13,0.485-0.06,1.033-0.028,1.55c0.203,3.348,1.603,6.354,2.84,9.377
				c1.442,3.525,4.015,6.263,6.895,8.669c2.596,2.168,4.564,4.716,5.553,7.971c1.566,5.153,3.755,10.05,6.099,14.882
				c0.351,0.724,0.424,1.706,1.965,2.128c-0.778-2.209-1.352-4.003-2.037-5.754c-2.508-6.415-3.504-13.322-7.15-19.415
				C566.993,260.606,565.146,256.918,562.449,253.732z"/>
			<path d="M421.414,239.084c-0.299,1.137-0.009,2.219,0.97,2.718c1.269,0.646,2.088,1.838,3.302,2.456
				c3.125,1.591,5.703,3.882,8.186,6.276c1.977,1.907,4.398,3.025,6.792,4.21c0.447,0.221,1.022,0.74,1.582,0.127
				c-6.151-6.848-12.275-13.668-18.527-20.629C422.103,235.881,421.828,237.512,421.414,239.084z"/>
			<path d="M422.9,206.989c0.672,0.411,1.452-0.028,1.153-0.711c-0.721-1.648-0.753-3.547-1.916-5.024
				c-1.819-2.312-3.58-4.669-5.409-6.973c-0.993-1.251-2.482-1.156-3.07,0.307c-0.772,1.92-2.133,3.328-3.49,4.779
				c-0.532,0.569-1.11,1.119-1.528,1.767c-0.688,1.068-0.133,2.648,0.891,2.763c0.922,0.01,1.273-0.815,1.854-1.292
				c0.87-0.715,1.503-1.234,2.931-0.732c1.614,0.566,3.042,1.23,4.185,2.419C419.749,205.589,421.435,206.094,422.9,206.989z"/>
			<path d="M447.78,243.47c0.24,0.347,0.535,0.69,0.88,0.924c0.721,0.49,1.103,0.061,1.337-0.597
				c0.037-0.395,0.049-0.404-0.636-1.361c-3.253-4.543-5.946-9.481-10.382-13.154c-2.741-2.269-4.321-5.586-6.155-8.621
				c-0.571-0.945-1.385-1.408-2.384-0.831c-0.935,0.541-0.437,1.445-0.103,2.08c2.536,4.834,5.161,9.675,9.515,13.125
				C442.938,237.483,445.56,240.259,447.78,243.47z"/>
			<path d="M318.942,364.682c0.737,0.361,1.531-0.286,1.61-1.397c-0.333-0.958-0.955-1.941-2.039-2.599
				c-0.995-0.604-2.034-1.015-3.181-0.504c-0.492,0.219-0.472,0.716-0.208,1.102C316.111,362.73,317.369,363.911,318.942,364.682z"
				/>
			<polygon points="415.02,375.105 415.014,375.101 415.01,375.1 415.012,375.104 			"/>
			<path d="M416.554,375.619c-0.027-0.004-0.055-0.008-0.083-0.011c0.018,0.016,0.038,0.024,0.055,0.041L416.554,375.619z"/>
			<path d="M415.02,375.105c0.411,0.384,0.934,0.433,1.451,0.503C416.058,375.244,415.546,375.155,415.02,375.105z"/>
			<path d="M417.641,376.177c-0.004-0.016-0.012-0.029-0.017-0.044h0c-0.356-0.172-0.713-0.343-1.07-0.514
				c0,0-0.028,0.03-0.028,0.03c0.361,0.168,0.721,0.335,1.082,0.503C417.619,376.16,417.63,376.169,417.641,376.177z"/>
			<path d="M417.851,376.353c-0.07-0.059-0.141-0.117-0.211-0.175c0.013,0.052,0.022,0.107,0.054,0.143
				C417.722,376.353,417.797,376.344,417.851,376.353z"/>
			<path d="M584.974,373.107c0.129-0.239,0.072-0.284-0.161-0.129c-0.001,0-0.035,0.039-0.035,0.039
				C584.846,373.048,584.972,373.111,584.974,373.107z"/>
			<path d="M584.813,372.977c-0.053-0.014-0.106-0.029-0.159-0.043c0.041,0.027,0.082,0.055,0.123,0.082
				C584.778,373.016,584.812,372.978,584.813,372.977z"/>
			<path d="M583.801,372.362c-0.077,0.092-0.154,0.184-0.231,0.276c0.362,0.098,0.723,0.197,1.084,0.296
				C584.369,372.744,584.085,372.553,583.801,372.362z"/>
			<path d="M582.666,371.986c-0.004-0.003-0.009-0.006-0.013-0.009c-0.003,0-0.005-0.001-0.008-0.001
				c0.002,0.002,0.003,0.004,0.005,0.005C582.656,371.982,582.661,371.984,582.666,371.986z"/>
			<path d="M583.8,372.363c-0.378-0.125-0.756-0.251-1.134-0.377c0.301,0.218,0.602,0.435,0.903,0.653
				C583.647,372.547,583.724,372.454,583.8,372.363z"/>
			<path d="M394.738,267.603c0.339,0.062,0.689,0.113,1.032,0.102c4.825-0.158,8.598,2.185,12.139,5.086
				c1.203,0.986,2.419,1.823,3.985,2.314c1.939,0.608,3.806,1.484,5.241,3.178c1.176,1.387,2.609,2.639,4.259,3.422
				c0.471-0.444,0.308-0.785,0.167-1.091c-1.422-3.083-3.479-5.813-5.701-8.267c-3.182-3.514-6.855-6.587-10.379-9.782
				c-2.507-2.273-5.022-4.511-6.551-7.619c-0.161-0.328-0.272-0.865-0.946-0.627c-0.283,1.506,0.662,2.646,1.343,3.78
				c0.728,1.214-0.017,1.441-0.813,1.884c-1.086,0.605-1.459-0.14-1.663-0.894c-0.314-1.163-0.284-2.442-0.716-3.548
				c-0.952-2.434-1.855-4.843-1.579-7.523c0.026-0.253-0.004-0.529-0.078-0.773c-0.192-0.632-0.583-1.062-1.301-1.048
				c-0.801,0.015-1.337,0.395-1.398,1.222c-0.044,0.6-0.045,1.22,0.056,1.811c0.408,2.402,0.595,4.815,0.114,7.212
				c-0.488,2.428,0.206,4.842-0.063,7.257C391.534,266.862,391.66,267.045,394.738,267.603z M410.355,269.91
				c0.109,0.069,0.218,0.137,0.327,0.206c-0.261,0.285-0.281-0.022-0.374-0.152c-3.809-1.448-6.535-4.097-6.702-6.918
				C406.154,265.328,408.621,267.236,410.355,269.91z"/>
			<path d="M372.367,315.918c-0.635,0.26-1.21,0.67-1.805,1.024c-0.492,0.293-0.794,0.698-0.516,1.283
				c0.272,0.572,0.817,0.598,1.341,0.499c0.421-0.08,0.848-0.211,1.228-0.405c1.693-0.865,3.448-1.642,5.04-2.669
				c4.437-2.863,9.199-5.152,13.709-7.898c2.745-1.671,5.473-3.272,7.856-5.43c2.507-2.269,5.095-4.42,8.268-5.733
				c0.39-0.161,0.759-0.42,1.073-0.704c0.324-0.292,0.56-0.7,0.413-1.159c-0.146-0.455-0.531-0.683-1.002-0.667
				c-1.21,0.04-2.418,0.117-3.628,0.166c-2.626,0.106-4.836-0.495-5.715-3.367c-0.101-0.328-0.255-0.65-0.436-0.942
				c-0.325-0.522-0.708-1.067-1.426-0.887c-0.869,0.217-0.933,0.969-0.834,1.672c0.144,1.025,0.389,2.036,0.629,3.24
				c-0.53,1.102-0.403,2.529-1.132,3.792c-1.88,3.255-3.968,6.289-7.291,8.262c-0.591,0.351-1.127,0.798-1.683,1.207
				C381.995,310.49,377.548,313.794,372.367,315.918z"/>
			<path d="M361.504,312.359c0.58,1.153,1.489,0.471,2.225,0.106c2.161-1.073,4.318-2.16,6.442-3.304
				c3.186-1.717,6.644-2.921,9.628-5.011c2.185-1.531,4.403-3.034,6.274-4.967c0.429-0.444,0.849-0.912,0.505-1.59
				c-0.283-0.557-0.83-0.537-1.349-0.536c-0.891-0.013-1.658,0.228-2.398,0.785c-3.383,2.547-7.081,4.596-10.735,6.717
				c-3.205,1.861-6.37,3.789-9.53,5.724C361.828,310.735,360.999,311.354,361.504,312.359z"/>
			<path d="M206.856,309.267c-2.329-1.307-3.867-0.561-3.946,2.124c-0.083,2.807-1.107,5.206-2.653,7.473
				c-1.219,1.787-2.338,3.642-3.525,5.45c-2.156,3.283-3.343,7.023-5.034,10.522c-0.716,1.481-1.058,2.853-0.789,4.647
				c0.941-0.408,1.392-0.941,1.793-1.495c4.786-6.616,10.499-12.421,16.039-18.377c0.896-0.963,1.696-1.987,2.228-3.167
				c0.555-1.233,0.654-2.564-0.318-3.668C209.51,311.482,208.412,310.14,206.856,309.267z"/>
			<path d="M230.249,281.539c-1.047-0.358-2.468,0.143-2.732,1.335c-0.688,3.115-3.332,4.998-4.554,7.743
				c-0.255,0.573-0.707,0.722-1.24,0.752c-0.691,0.038-1.386,0.014-2.076,0.058c-2.408,0.156-2.965,1.175-1.492,3.135
				c1.499,1.995,3.187,3.858,4.902,5.675c1.09,1.154,2.037,0.99,2.943-0.398c0.895-1.371,1.688-2.795,2.083-4.429
				c0.629-2.601,1.371-5.175,2.058-7.762c0.331-1.248,1.136-2.354,1.101-3.716C231.211,283.015,231.468,281.956,230.249,281.539z"/>
		</g>
		<g>
			<path d="M119.349,411.023c7.331-0.092,14.605-0.937,21.906-1.667c10.013-1.001,20.519-1.715,30.286-4.172
				c6.611-1.663,13.134-3.753,19.748-5.361c2.796-0.68,4.942-1.447,7.809-1.454c5.46-0.014,10.791-1.744,16.157-2.542
				c1.796-0.267,2.962-0.13,4.666,0.529c2.114,0.818,4.388,0.825,6.63,0.73c2.492-0.106,4.587-1.198,7.007-1.446
				c1.016-0.104,2.115,0.046,3.146,0.05c1.438,0.005,3.207-0.34,4.589-0.047c0.981,0.208,1.939,1.249,2.944,1.708
				c4.686,2.14,9.667,2.436,14.699,3.005c3.914,0.443,7.811,0.709,11.749,0.683c2.913-0.019,6.514,0.597,9.357-0.072
				c2.51-0.591,3.774-0.846,6.322,0.308c3.662,1.659,8.431,1.68,12.408,1.767c10.854,0.239,21.658,1.315,32.548,1.315
				c11.119,0,22.097-0.667,33.217-0.667c-4.609,0-9.219,0.036-13.827-0.015c-2.565-0.029-5.008,0.657-7.587,0.708
				c-2.962,0.058-5.598-0.058-8.501,0.492c-4.833,0.917-10.435,0.145-15.375,0.148c-5.515,0.003-10.743,0.29-16.108,1.318
				c-3.423,0.656-6.848,1.781-10.366,1.214c-2.85-0.46-5.628-1.335-8.49-1.749c-4.281-0.619-8.88-0.116-13.206-0.116
				c-5.27,0-10.602,0.428-15.759-0.821c-2.365-0.573-4.187-1.755-6.395-2.712c-2.527-1.095-5.643-1.705-8.399-1.816
				c-8.304-0.335-16.539-0.651-24.873-0.651c-2.461,0-4.922,0.014-7.383-0.015c-4.319-0.052-7.547,1.875-11.572,2.848
				c-9.927,2.401-20.09,4.682-30.296,5.76c-7.769,0.82-15.545,1.507-23.324,2.238c-4.134,0.388-8.166,0.524-12.316,0.485
				c-2.471-0.023-4.724,0.541-7.13,0.709c-3.885,0.271-7.699,0.039-11.598,0.493c-5.771,0.672-11.893,0.148-17.705,0.148
				c-3.035,0-6.581,0.459-9.612,0.034c-1.655-0.232-2.998-0.714-4.715-0.699c-1.267,0.011-2.536-0.002-3.803-0.002
				c4.656,0,9.318,0.068,13.973,0.025c2.662-0.025,5.162-0.735,7.803-0.707c1.904,0.02,3.807,0.015,5.711,0.015
				C111.349,411.023,119.016,411.023,119.349,411.023z"/>
			<path d="M378.016,404.356c11.032-0.085,22.373-0.84,33.277-2.674c2.377-0.4,4.991-1.225,7.359-1.354
				c1.441-0.078,2.638,0.597,3.996,0.971c2.368,0.652,4.822,0.391,7.266,0.389c4.037-0.003,8.684-0.626,12.554,0.485
				c2.197,0.631,4.391,0.827,6.525,1.435c2.389,0.681,4.849,1.448,7.339,1.421c2.734-0.031,5.469-0.007,8.203-0.007
				c2.536,0,5.389,0.347,7.899-0.116c3.547-0.655,6.389-2.07,9.584-3.569c1.531-0.718,3.133-1.305,4.679-1.997
				c1.022-0.457,2.837-1.298,4.015-1.048c1.063,0.226,0.822,0.769,1.44,1.415c0.855,0.894,1.962,1.119,3.206,1.264
				c1.871,0.218,3.769-0.044,5.65,0.107c3.142,0.252,6.405,0.497,9.515,1.001c6.064,0.983,12.148,1.871,18.222,2.794
				c1.57,0.239,3.043,0.289,4.577,0.778c1.276,0.407,2.477,1.02,3.81,1.256c1.489,0.264,3.07,0.103,4.572,0.26
				c2.959,0.309,5.725,1.161,8.731,1.22c3.509,0.068,7.03-0.032,10.54-0.032c6.418,0,12.837,0,19.255,0
				c10.418,0,20.912,0.357,31.327-0.016c-5.145-0.358-10.436,1.987-15.597,2.068c-6.548,0.102-13.043,0.625-19.596,0.612
				c-9.421-0.019-18.841,0.002-28.262,0.002c-5.451,0-10.904-0.033-16.355,0.007c-1.656,0.012-2.976-0.159-4.574-0.493
				c-2.774-0.579-5.661-0.547-8.39-1.333c-3.45-0.994-6.685-2.504-10.231-3.186c-2.08-0.4-4.249-0.928-6.367-1.027
				c-1.925-0.09-3.893,0.254-5.802-0.026c-2.487-0.365-4.885-1.236-7.4-1.282c-3.507-0.064-6.607-0.039-9.976,1.001
				c-1.716,0.53-3.557,0.811-5.151,1.635c-1.38,0.713-2.64,1.518-4.114,2.068c-3.389,1.264-7.48,1.338-11.097,1.308
				c-3.218-0.027-5.965-0.185-9.116-0.856c-3.841-0.818-8.139,0.344-11.82-0.792c-1.139-0.352-1.973-0.928-3.216-1.046
				c-1.284-0.122-1.657-0.06-2.853-0.744c-4.05-2.314-6.813-2.97-11.309-2.235c-1.642,0.268-3.217,0.111-4.836,0.297
				c-2.031,0.233-3.756,0.74-5.87,0.719c-5.041-0.049-10.003,0.712-15.024,0.667C388.817,405.652,383.157,406.356,378.016,404.356z"
				/>
			<path d="M704.349,395.023c-2.618-0.563-4.428-0.387-7.128-0.147c-4.421,0.393-8.906,0.638-13.343,0.669
				c-3.792,0.027-7.638,0.191-11.419-0.074c-4.973-0.348-9.922-1.094-14.867-1.694c-3.419-0.415-7.227-0.46-10.459-1.767
				c-1.129-0.456-2.093-1.289-3.146-1.888c-1.344-0.763-2.33-0.847-3.787-1.209c-1.14-0.284-2.165-0.913-3.223-1.402
				c-1.442-0.666-2.921-0.95-4.363-1.488c-1.402-0.523-2.751-0.665-4.283-0.525c-2.937,0.268-5.88,1.455-8.801,1.926
				c-1.835,0.296-3.82,1.017-5.643,1.116c-1.997,0.108-3.8-0.009-5.771,0.361c-1.244,0.233-2.19,0.138-3.401,0.595
				c-0.865,0.327-1.699,0.725-2.573,1.032c-6.87,2.41-14.738,1.494-21.892,1.494c-15.304,0-30.607,0-45.911,0
				c7.786,0,15.741-0.489,23.501,0.111c4.868,0.377,9.686,0.389,14.566,0.389c4.345,0,8.692,0.035,13.037-0.012
				c2.938-0.031,5.853,0.527,8.831,0.512c2.724-0.014,5.532-0.231,8.241,0.1c1.518,0.185,2.986,0.633,4.507,0.812
				c3.887,0.459,8.041-0.327,11.9-0.789c4.061-0.486,7.979-2.486,12.134-2.16c1.237,0.097,2.16,0.724,3.384,0.942
				c1.504,0.268,2.914,0.165,4.399,0.582c3.334,0.936,6.842,1.108,10.238,1.758c3.162,0.605,6.376,1.347,9.446,2.28
				c3.949,1.201,8.645,0.476,12.718,0.476c7.574,0,15.312,0.023,22.731-1.637C698.236,394.431,702.501,394.523,704.349,395.023z"/>
		</g>
	</g>
</g>
</svg>
